<?xml version="1.0" encoding="utf-8" standalone="no"?>
<!DOCTYPE svg PUBLIC "-//W3C//DTD SVG 1.1//EN"
  "http://www.w3.org/Graphics/SVG/1.1/DTD/svg11.dtd">
<svg xmlns:xlink="http://www.w3.org/1999/xlink" width="864pt" height="432pt" viewBox="0 0 864 432" xmlns="http://www.w3.org/2000/svg" version="1.1">
 <metadata>
  <rdf:RDF xmlns:dc="http://purl.org/dc/elements/1.1/" xmlns:cc="http://creativecommons.org/ns#" xmlns:rdf="http://www.w3.org/1999/02/22-rdf-syntax-ns#">
   <cc:Work>
    <dc:type rdf:resource="http://purl.org/dc/dcmitype/StillImage"/>
    <dc:date>2022-12-05T20:19:14.239508</dc:date>
    <dc:format>image/svg+xml</dc:format>
    <dc:creator>
     <cc:Agent>
      <dc:title>Matplotlib v3.5.2, https://matplotlib.org/</dc:title>
     </cc:Agent>
    </dc:creator>
   </cc:Work>
  </rdf:RDF>
 </metadata>
 <defs>
  <style type="text/css">*{stroke-linejoin: round; stroke-linecap: butt}</style>
 </defs>
 <g id="figure_1">
  <g id="patch_1">
   <path d="M 0 432 
L 864 432 
L 864 0 
L 0 0 
z
" style="fill: #ffffff"/>
  </g>
  <g id="axes_1">
   <g id="patch_2">
    <path d="M 49.08 384.9 
L 853.2 384.9 
L 853.2 30.48 
L 49.08 30.48 
z
" style="fill: #eaeaf2"/>
   </g>
   <g id="matplotlib.axis_1">
    <g id="xtick_1">
     <g id="line2d_1">
      <path d="M 85.630909 384.9 
L 85.630909 30.48 
" clip-path="url(#pcd4cc36468)" style="fill: none; stroke: #ffffff; stroke-width: 0.8; stroke-linecap: round"/>
     </g>
     <g id="line2d_2"/>
     <g id="text_1">
      <!-- 1.0 -->
      <g style="fill: #262626" transform="translate(75.900909 398.545625)scale(0.14 -0.14)">
       <defs>
        <path id="LiberationSans-31" d="M 488 0 
L 488 478 
L 1609 478 
L 1609 3866 
L 616 3156 
L 616 3688 
L 1656 4403 
L 2175 4403 
L 2175 478 
L 3247 478 
L 3247 0 
L 488 0 
z
" transform="scale(0.015625)"/>
        <path id="LiberationSans-2e" d="M 584 0 
L 584 684 
L 1194 684 
L 1194 0 
L 584 0 
z
" transform="scale(0.015625)"/>
        <path id="LiberationSans-30" d="M 3309 2203 
Q 3309 1100 2920 518 
Q 2531 -63 1772 -63 
Q 1013 -63 631 515 
Q 250 1094 250 2203 
Q 250 3338 620 3903 
Q 991 4469 1791 4469 
Q 2569 4469 2939 3897 
Q 3309 3325 3309 2203 
z
M 2738 2203 
Q 2738 3156 2517 3584 
Q 2297 4013 1791 4013 
Q 1272 4013 1045 3591 
Q 819 3169 819 2203 
Q 819 1266 1048 831 
Q 1278 397 1778 397 
Q 2275 397 2506 840 
Q 2738 1284 2738 2203 
z
" transform="scale(0.015625)"/>
       </defs>
       <use xlink:href="#LiberationSans-31"/>
       <use xlink:href="#LiberationSans-2e" x="55.615234"/>
       <use xlink:href="#LiberationSans-30" x="83.398438"/>
      </g>
     </g>
    </g>
    <g id="xtick_2">
     <g id="line2d_3">
      <path d="M 207.467273 384.9 
L 207.467273 30.48 
" clip-path="url(#pcd4cc36468)" style="fill: none; stroke: #ffffff; stroke-width: 0.8; stroke-linecap: round"/>
     </g>
     <g id="line2d_4"/>
     <g id="text_2">
      <!-- 1.5 -->
      <g style="fill: #262626" transform="translate(197.737273 398.545625)scale(0.14 -0.14)">
       <defs>
        <path id="LiberationSans-35" d="M 3291 1434 
Q 3291 738 2877 337 
Q 2463 -63 1728 -63 
Q 1113 -63 734 206 
Q 356 475 256 984 
L 825 1050 
Q 1003 397 1741 397 
Q 2194 397 2450 670 
Q 2706 944 2706 1422 
Q 2706 1838 2448 2094 
Q 2191 2350 1753 2350 
Q 1525 2350 1328 2278 
Q 1131 2206 934 2034 
L 384 2034 
L 531 4403 
L 3034 4403 
L 3034 3925 
L 1044 3925 
L 959 2528 
Q 1325 2809 1869 2809 
Q 2519 2809 2905 2428 
Q 3291 2047 3291 1434 
z
" transform="scale(0.015625)"/>
       </defs>
       <use xlink:href="#LiberationSans-31"/>
       <use xlink:href="#LiberationSans-2e" x="55.615234"/>
       <use xlink:href="#LiberationSans-35" x="83.398438"/>
      </g>
     </g>
    </g>
    <g id="xtick_3">
     <g id="line2d_5">
      <path d="M 329.303636 384.9 
L 329.303636 30.48 
" clip-path="url(#pcd4cc36468)" style="fill: none; stroke: #ffffff; stroke-width: 0.8; stroke-linecap: round"/>
     </g>
     <g id="line2d_6"/>
     <g id="text_3">
      <!-- 2.0 -->
      <g style="fill: #262626" transform="translate(319.573636 398.545625)scale(0.14 -0.14)">
       <defs>
        <path id="LiberationSans-32" d="M 322 0 
L 322 397 
Q 481 763 711 1042 
Q 941 1322 1194 1548 
Q 1447 1775 1695 1969 
Q 1944 2163 2144 2356 
Q 2344 2550 2467 2762 
Q 2591 2975 2591 3244 
Q 2591 3606 2378 3806 
Q 2166 4006 1788 4006 
Q 1428 4006 1195 3811 
Q 963 3616 922 3263 
L 347 3316 
Q 409 3844 795 4156 
Q 1181 4469 1788 4469 
Q 2453 4469 2811 4155 
Q 3169 3841 3169 3263 
Q 3169 3006 3051 2753 
Q 2934 2500 2703 2247 
Q 2472 1994 1819 1463 
Q 1459 1169 1246 933 
Q 1034 697 941 478 
L 3238 478 
L 3238 0 
L 322 0 
z
" transform="scale(0.015625)"/>
       </defs>
       <use xlink:href="#LiberationSans-32"/>
       <use xlink:href="#LiberationSans-2e" x="55.615234"/>
       <use xlink:href="#LiberationSans-30" x="83.398438"/>
      </g>
     </g>
    </g>
    <g id="xtick_4">
     <g id="line2d_7">
      <path d="M 451.14 384.9 
L 451.14 30.48 
" clip-path="url(#pcd4cc36468)" style="fill: none; stroke: #ffffff; stroke-width: 0.8; stroke-linecap: round"/>
     </g>
     <g id="line2d_8"/>
     <g id="text_4">
      <!-- 2.5 -->
      <g style="fill: #262626" transform="translate(441.41 398.545625)scale(0.14 -0.14)">
       <use xlink:href="#LiberationSans-32"/>
       <use xlink:href="#LiberationSans-2e" x="55.615234"/>
       <use xlink:href="#LiberationSans-35" x="83.398438"/>
      </g>
     </g>
    </g>
    <g id="xtick_5">
     <g id="line2d_9">
      <path d="M 572.976364 384.9 
L 572.976364 30.48 
" clip-path="url(#pcd4cc36468)" style="fill: none; stroke: #ffffff; stroke-width: 0.8; stroke-linecap: round"/>
     </g>
     <g id="line2d_10"/>
     <g id="text_5">
      <!-- 3.0 -->
      <g style="fill: #262626" transform="translate(563.246364 398.545625)scale(0.14 -0.14)">
       <defs>
        <path id="LiberationSans-33" d="M 3278 1216 
Q 3278 606 2890 271 
Q 2503 -63 1784 -63 
Q 1116 -63 717 239 
Q 319 541 244 1131 
L 825 1184 
Q 938 403 1784 403 
Q 2209 403 2451 612 
Q 2694 822 2694 1234 
Q 2694 1594 2417 1795 
Q 2141 1997 1619 1997 
L 1300 1997 
L 1300 2484 
L 1606 2484 
Q 2069 2484 2323 2686 
Q 2578 2888 2578 3244 
Q 2578 3597 2370 3801 
Q 2163 4006 1753 4006 
Q 1381 4006 1151 3815 
Q 922 3625 884 3278 
L 319 3322 
Q 381 3863 767 4166 
Q 1153 4469 1759 4469 
Q 2422 4469 2789 4161 
Q 3156 3853 3156 3303 
Q 3156 2881 2920 2617 
Q 2684 2353 2234 2259 
L 2234 2247 
Q 2728 2194 3003 1916 
Q 3278 1638 3278 1216 
z
" transform="scale(0.015625)"/>
       </defs>
       <use xlink:href="#LiberationSans-33"/>
       <use xlink:href="#LiberationSans-2e" x="55.615234"/>
       <use xlink:href="#LiberationSans-30" x="83.398438"/>
      </g>
     </g>
    </g>
    <g id="xtick_6">
     <g id="line2d_11">
      <path d="M 694.812727 384.9 
L 694.812727 30.48 
" clip-path="url(#pcd4cc36468)" style="fill: none; stroke: #ffffff; stroke-width: 0.8; stroke-linecap: round"/>
     </g>
     <g id="line2d_12"/>
     <g id="text_6">
      <!-- 3.5 -->
      <g style="fill: #262626" transform="translate(685.082727 398.545625)scale(0.14 -0.14)">
       <use xlink:href="#LiberationSans-33"/>
       <use xlink:href="#LiberationSans-2e" x="55.615234"/>
       <use xlink:href="#LiberationSans-35" x="83.398438"/>
      </g>
     </g>
    </g>
    <g id="xtick_7">
     <g id="line2d_13">
      <path d="M 816.649091 384.9 
L 816.649091 30.48 
" clip-path="url(#pcd4cc36468)" style="fill: none; stroke: #ffffff; stroke-width: 0.8; stroke-linecap: round"/>
     </g>
     <g id="line2d_14"/>
     <g id="text_7">
      <!-- 4.0 -->
      <g style="fill: #262626" transform="translate(806.919091 398.545625)scale(0.14 -0.14)">
       <defs>
        <path id="LiberationSans-34" d="M 2753 997 
L 2753 0 
L 2222 0 
L 2222 997 
L 147 997 
L 147 1434 
L 2163 4403 
L 2753 4403 
L 2753 1441 
L 3372 1441 
L 3372 997 
L 2753 997 
z
M 2222 3769 
Q 2216 3750 2134 3603 
Q 2053 3456 2013 3397 
L 884 1734 
L 716 1503 
L 666 1441 
L 2222 1441 
L 2222 3769 
z
" transform="scale(0.015625)"/>
       </defs>
       <use xlink:href="#LiberationSans-34"/>
       <use xlink:href="#LiberationSans-2e" x="55.615234"/>
       <use xlink:href="#LiberationSans-30" x="83.398438"/>
      </g>
     </g>
    </g>
    <g id="text_8">
     <!-- Server Number -->
     <g style="fill: #262626" transform="translate(396.905 417.045625)scale(0.16 -0.16)">
      <defs>
       <path id="LiberationSans-53" d="M 3975 1216 
Q 3975 606 3498 271 
Q 3022 -63 2156 -63 
Q 547 -63 291 1056 
L 869 1172 
Q 969 775 1294 589 
Q 1619 403 2178 403 
Q 2756 403 3070 601 
Q 3384 800 3384 1184 
Q 3384 1400 3286 1534 
Q 3188 1669 3009 1756 
Q 2831 1844 2584 1903 
Q 2338 1963 2038 2031 
Q 1516 2147 1245 2262 
Q 975 2378 819 2520 
Q 663 2663 580 2853 
Q 497 3044 497 3291 
Q 497 3856 930 4162 
Q 1363 4469 2169 4469 
Q 2919 4469 3316 4239 
Q 3713 4009 3872 3456 
L 3284 3353 
Q 3188 3703 2916 3861 
Q 2644 4019 2163 4019 
Q 1634 4019 1356 3844 
Q 1078 3669 1078 3322 
Q 1078 3119 1186 2986 
Q 1294 2853 1497 2761 
Q 1700 2669 2306 2534 
Q 2509 2488 2711 2439 
Q 2913 2391 3097 2323 
Q 3281 2256 3442 2165 
Q 3603 2075 3722 1944 
Q 3841 1813 3908 1634 
Q 3975 1456 3975 1216 
z
" transform="scale(0.015625)"/>
       <path id="LiberationSans-65" d="M 863 1572 
Q 863 991 1103 675 
Q 1344 359 1806 359 
Q 2172 359 2392 506 
Q 2613 653 2691 878 
L 3184 738 
Q 2881 -63 1806 -63 
Q 1056 -63 664 384 
Q 272 831 272 1713 
Q 272 2550 664 2997 
Q 1056 3444 1784 3444 
Q 3275 3444 3275 1647 
L 3275 1572 
L 863 1572 
z
M 2694 2003 
Q 2647 2538 2422 2783 
Q 2197 3028 1775 3028 
Q 1366 3028 1127 2754 
Q 888 2481 869 2003 
L 2694 2003 
z
" transform="scale(0.015625)"/>
       <path id="LiberationSans-72" d="M 444 0 
L 444 2594 
Q 444 2950 425 3381 
L 956 3381 
Q 981 2806 981 2691 
L 994 2691 
Q 1128 3125 1303 3284 
Q 1478 3444 1797 3444 
Q 1909 3444 2025 3413 
L 2025 2897 
Q 1913 2928 1725 2928 
Q 1375 2928 1190 2626 
Q 1006 2325 1006 1763 
L 1006 0 
L 444 0 
z
" transform="scale(0.015625)"/>
       <path id="LiberationSans-76" d="M 1916 0 
L 1250 0 
L 22 3381 
L 622 3381 
L 1366 1181 
Q 1406 1056 1581 441 
L 1691 806 
L 1813 1175 
L 2581 3381 
L 3178 3381 
L 1916 0 
z
" transform="scale(0.015625)"/>
       <path id="LiberationSans-20" transform="scale(0.015625)"/>
       <path id="LiberationSans-4e" d="M 3381 0 
L 1025 3750 
L 1041 3447 
L 1056 2925 
L 1056 0 
L 525 0 
L 525 4403 
L 1219 4403 
L 3600 628 
Q 3563 1241 3563 1516 
L 3563 4403 
L 4100 4403 
L 4100 0 
L 3381 0 
z
" transform="scale(0.015625)"/>
       <path id="LiberationSans-75" d="M 981 3381 
L 981 1238 
Q 981 903 1047 718 
Q 1113 534 1256 453 
Q 1400 372 1678 372 
Q 2084 372 2318 650 
Q 2553 928 2553 1422 
L 2553 3381 
L 3116 3381 
L 3116 722 
Q 3116 131 3134 0 
L 2603 0 
Q 2600 16 2597 84 
Q 2594 153 2589 242 
Q 2584 331 2578 578 
L 2569 578 
Q 2375 228 2120 82 
Q 1866 -63 1488 -63 
Q 931 -63 673 214 
Q 416 491 416 1128 
L 416 3381 
L 981 3381 
z
" transform="scale(0.015625)"/>
       <path id="LiberationSans-6d" d="M 2400 0 
L 2400 2144 
Q 2400 2634 2265 2821 
Q 2131 3009 1781 3009 
Q 1422 3009 1212 2734 
Q 1003 2459 1003 1959 
L 1003 0 
L 444 0 
L 444 2659 
Q 444 3250 425 3381 
L 956 3381 
Q 959 3366 962 3297 
Q 966 3228 970 3139 
Q 975 3050 981 2803 
L 991 2803 
Q 1172 3163 1406 3303 
Q 1641 3444 1978 3444 
Q 2363 3444 2586 3291 
Q 2809 3138 2897 2803 
L 2906 2803 
Q 3081 3144 3329 3294 
Q 3578 3444 3931 3444 
Q 4444 3444 4676 3166 
Q 4909 2888 4909 2253 
L 4909 0 
L 4353 0 
L 4353 2144 
Q 4353 2634 4218 2821 
Q 4084 3009 3734 3009 
Q 3366 3009 3161 2736 
Q 2956 2463 2956 1959 
L 2956 0 
L 2400 0 
z
" transform="scale(0.015625)"/>
       <path id="LiberationSans-62" d="M 3291 1706 
Q 3291 -63 2047 -63 
Q 1663 -63 1408 76 
Q 1153 216 994 525 
L 988 525 
Q 988 428 975 229 
Q 963 31 956 0 
L 413 0 
Q 431 169 431 697 
L 431 4638 
L 994 4638 
L 994 3316 
Q 994 3113 981 2838 
L 994 2838 
Q 1150 3163 1408 3303 
Q 1666 3444 2047 3444 
Q 2688 3444 2989 3012 
Q 3291 2581 3291 1706 
z
M 2700 1688 
Q 2700 2397 2512 2703 
Q 2325 3009 1903 3009 
Q 1428 3009 1211 2684 
Q 994 2359 994 1653 
Q 994 988 1206 670 
Q 1419 353 1897 353 
Q 2322 353 2511 667 
Q 2700 981 2700 1688 
z
" transform="scale(0.015625)"/>
      </defs>
      <use xlink:href="#LiberationSans-53"/>
      <use xlink:href="#LiberationSans-65" x="66.699219"/>
      <use xlink:href="#LiberationSans-72" x="122.314453"/>
      <use xlink:href="#LiberationSans-76" x="155.615234"/>
      <use xlink:href="#LiberationSans-65" x="205.615234"/>
      <use xlink:href="#LiberationSans-72" x="261.230469"/>
      <use xlink:href="#LiberationSans-20" x="294.53125"/>
      <use xlink:href="#LiberationSans-4e" x="322.314453"/>
      <use xlink:href="#LiberationSans-75" x="394.53125"/>
      <use xlink:href="#LiberationSans-6d" x="450.146484"/>
      <use xlink:href="#LiberationSans-62" x="533.447266"/>
      <use xlink:href="#LiberationSans-65" x="589.0625"/>
      <use xlink:href="#LiberationSans-72" x="644.677734"/>
     </g>
    </g>
   </g>
   <g id="matplotlib.axis_2">
    <g id="ytick_1">
     <g id="line2d_15">
      <path d="M 49.08 368.965657 
L 853.2 368.965657 
" clip-path="url(#pcd4cc36468)" style="fill: none; stroke: #ffffff; stroke-width: 0.8; stroke-linecap: round"/>
     </g>
     <g id="line2d_16"/>
     <g id="text_9">
      <!-- 0 -->
      <g style="fill: #262626" transform="translate(37.794688 374.03847)scale(0.14 -0.14)">
       <use xlink:href="#LiberationSans-30"/>
      </g>
     </g>
    </g>
    <g id="ytick_2">
     <g id="line2d_17">
      <path d="M 49.08 302.397543 
L 853.2 302.397543 
" clip-path="url(#pcd4cc36468)" style="fill: none; stroke: #ffffff; stroke-width: 0.8; stroke-linecap: round"/>
     </g>
     <g id="line2d_18"/>
     <g id="text_10">
      <!-- 5 -->
      <g style="fill: #262626" transform="translate(37.794688 307.470355)scale(0.14 -0.14)">
       <use xlink:href="#LiberationSans-35"/>
      </g>
     </g>
    </g>
    <g id="ytick_3">
     <g id="line2d_19">
      <path d="M 49.08 235.829428 
L 853.2 235.829428 
" clip-path="url(#pcd4cc36468)" style="fill: none; stroke: #ffffff; stroke-width: 0.8; stroke-linecap: round"/>
     </g>
     <g id="line2d_20"/>
     <g id="text_11">
      <!-- 10 -->
      <g style="fill: #262626" transform="translate(30.009375 240.902241)scale(0.14 -0.14)">
       <use xlink:href="#LiberationSans-31"/>
       <use xlink:href="#LiberationSans-30" x="55.615234"/>
      </g>
     </g>
    </g>
    <g id="ytick_4">
     <g id="line2d_21">
      <path d="M 49.08 169.261314 
L 853.2 169.261314 
" clip-path="url(#pcd4cc36468)" style="fill: none; stroke: #ffffff; stroke-width: 0.8; stroke-linecap: round"/>
     </g>
     <g id="line2d_22"/>
     <g id="text_12">
      <!-- 15 -->
      <g style="fill: #262626" transform="translate(30.009375 174.334127)scale(0.14 -0.14)">
       <use xlink:href="#LiberationSans-31"/>
       <use xlink:href="#LiberationSans-35" x="55.615234"/>
      </g>
     </g>
    </g>
    <g id="ytick_5">
     <g id="line2d_23">
      <path d="M 49.08 102.6932 
L 853.2 102.6932 
" clip-path="url(#pcd4cc36468)" style="fill: none; stroke: #ffffff; stroke-width: 0.8; stroke-linecap: round"/>
     </g>
     <g id="line2d_24"/>
     <g id="text_13">
      <!-- 20 -->
      <g style="fill: #262626" transform="translate(30.009375 107.766012)scale(0.14 -0.14)">
       <use xlink:href="#LiberationSans-32"/>
       <use xlink:href="#LiberationSans-30" x="55.615234"/>
      </g>
     </g>
    </g>
    <g id="ytick_6">
     <g id="line2d_25">
      <path d="M 49.08 36.125085 
L 853.2 36.125085 
" clip-path="url(#pcd4cc36468)" style="fill: none; stroke: #ffffff; stroke-width: 0.8; stroke-linecap: round"/>
     </g>
     <g id="line2d_26"/>
     <g id="text_14">
      <!-- 25 -->
      <g style="fill: #262626" transform="translate(30.009375 41.197898)scale(0.14 -0.14)">
       <use xlink:href="#LiberationSans-32"/>
       <use xlink:href="#LiberationSans-35" x="55.615234"/>
      </g>
     </g>
    </g>
    <g id="text_15">
     <!-- Time -->
     <g style="fill: #262626" transform="translate(22.689375 225.16625)rotate(-90)scale(0.16 -0.16)">
      <defs>
       <path id="LiberationSans-54" d="M 2250 3916 
L 2250 0 
L 1656 0 
L 1656 3916 
L 144 3916 
L 144 4403 
L 3763 4403 
L 3763 3916 
L 2250 3916 
z
" transform="scale(0.015625)"/>
       <path id="LiberationSans-69" d="M 428 4100 
L 428 4638 
L 991 4638 
L 991 4100 
L 428 4100 
z
M 428 0 
L 428 3381 
L 991 3381 
L 991 0 
L 428 0 
z
" transform="scale(0.015625)"/>
      </defs>
      <use xlink:href="#LiberationSans-54"/>
      <use xlink:href="#LiberationSans-69" x="57.333984"/>
      <use xlink:href="#LiberationSans-6d" x="79.550781"/>
      <use xlink:href="#LiberationSans-65" x="162.851562"/>
     </g>
    </g>
   </g>
   <g id="PolyCollection_1">
    <defs>
     <path id="meeb6ce42a2" d="M 85.630909 -66.763771 
L 85.630909 -66.417784 
L 329.303636 -63.97333 
L 816.649091 -63.21 
L 816.649091 -63.261359 
L 816.649091 -63.261359 
L 329.303636 -64.122277 
L 85.630909 -66.763771 
z
" style="stroke: #9acd32; stroke-opacity: 0.2"/>
    </defs>
    <g clip-path="url(#pcd4cc36468)">
     <use xlink:href="#meeb6ce42a2" x="0" y="432" style="fill: #9acd32; fill-opacity: 0.2; stroke: #9acd32; stroke-opacity: 0.2"/>
    </g>
   </g>
   <g id="PolyCollection_2">
    <defs>
     <path id="m129a1367d4" d="M 85.630909 -99.934578 
L 85.630909 -93.374361 
L 329.303636 -75.954482 
L 816.649091 -68.112645 
L 816.649091 -69.713686 
L 816.649091 -69.713686 
L 329.303636 -79.185438 
L 85.630909 -99.934578 
z
" style="stroke: #daa520; stroke-opacity: 0.2"/>
    </defs>
    <g clip-path="url(#pcd4cc36468)">
     <use xlink:href="#m129a1367d4" x="0" y="432" style="fill: #daa520; fill-opacity: 0.2; stroke: #daa520; stroke-opacity: 0.2"/>
    </g>
   </g>
   <g id="PolyCollection_3">
    <defs>
     <path id="m0b96ae447d" d="M 85.630909 -174.024349 
L 85.630909 -139.790943 
L 329.303636 -97.699492 
L 816.649091 -79.017786 
L 816.649091 -88.397923 
L 816.649091 -88.397923 
L 329.303636 -117.085052 
L 85.630909 -174.024349 
z
" style="stroke: #ffa500; stroke-opacity: 0.2"/>
    </defs>
    <g clip-path="url(#pcd4cc36468)">
     <use xlink:href="#m0b96ae447d" x="0" y="432" style="fill: #ffa500; fill-opacity: 0.2; stroke: #ffa500; stroke-opacity: 0.2"/>
    </g>
   </g>
   <g id="PolyCollection_4">
    <defs>
     <path id="m773d690763" d="M 85.630909 -385.41 
L 85.630909 -215.694863 
L 329.303636 -129.609884 
L 816.649091 -96.277861 
L 816.649091 -140.116836 
L 816.649091 -140.116836 
L 329.303636 -233.995063 
L 85.630909 -385.41 
z
" style="stroke: #b22222; stroke-opacity: 0.2"/>
    </defs>
    <g clip-path="url(#pcd4cc36468)">
     <use xlink:href="#m773d690763" x="0" y="432" style="fill: #b22222; fill-opacity: 0.2; stroke: #b22222; stroke-opacity: 0.2"/>
    </g>
   </g>
   <g id="line2d_27">
    <path d="M 85.630909 365.409223 
L 329.303636 367.952197 
L 816.649091 368.76432 
" clip-path="url(#pcd4cc36468)" style="fill: none; stroke: #9acd32; stroke-width: 1.5; stroke-linecap: round"/>
   </g>
   <g id="line2d_28">
    <defs>
     <path id="m65cdb54299" d="M 0 3 
C 0.795609 3 1.55874 2.683901 2.12132 2.12132 
C 2.683901 1.55874 3 0.795609 3 0 
C 3 -0.795609 2.683901 -1.55874 2.12132 -2.12132 
C 1.55874 -2.683901 0.795609 -3 0 -3 
C -0.795609 -3 -1.55874 -2.683901 -2.12132 -2.12132 
C -2.683901 -1.55874 -3 -0.795609 -3 0 
C -3 0.795609 -2.683901 1.55874 -2.12132 2.12132 
C -1.55874 2.683901 -0.795609 3 0 3 
z
" style="stroke: #9acd32"/>
    </defs>
    <g clip-path="url(#pcd4cc36468)">
     <use xlink:href="#m65cdb54299" x="85.630909" y="365.409223" style="fill: #9acd32; stroke: #9acd32"/>
     <use xlink:href="#m65cdb54299" x="329.303636" y="367.952197" style="fill: #9acd32; stroke: #9acd32"/>
     <use xlink:href="#m65cdb54299" x="816.649091" y="368.76432" style="fill: #9acd32; stroke: #9acd32"/>
    </g>
   </g>
   <g id="line2d_29">
    <path d="M 85.630909 335.345531 
L 329.303636 354.43004 
L 816.649091 363.086834 
" clip-path="url(#pcd4cc36468)" style="fill: none; stroke: #daa520; stroke-width: 1.5; stroke-linecap: round"/>
   </g>
   <g id="line2d_30">
    <defs>
     <path id="m8992582c59" d="M 0 3 
C 0.795609 3 1.55874 2.683901 2.12132 2.12132 
C 2.683901 1.55874 3 0.795609 3 0 
C 3 -0.795609 2.683901 -1.55874 2.12132 -2.12132 
C 1.55874 -2.683901 0.795609 -3 0 -3 
C -0.795609 -3 -1.55874 -2.683901 -2.12132 -2.12132 
C -2.683901 -1.55874 -3 -0.795609 -3 0 
C -3 0.795609 -2.683901 1.55874 -2.12132 2.12132 
C -1.55874 2.683901 -0.795609 3 0 3 
z
" style="stroke: #daa520"/>
    </defs>
    <g clip-path="url(#pcd4cc36468)">
     <use xlink:href="#m8992582c59" x="85.630909" y="335.345531" style="fill: #daa520; stroke: #daa520"/>
     <use xlink:href="#m8992582c59" x="329.303636" y="354.43004" style="fill: #daa520; stroke: #daa520"/>
     <use xlink:href="#m8992582c59" x="816.649091" y="363.086834" style="fill: #daa520; stroke: #daa520"/>
    </g>
   </g>
   <g id="line2d_31">
    <path d="M 85.630909 275.092354 
L 329.303636 324.607728 
L 816.649091 348.292145 
" clip-path="url(#pcd4cc36468)" style="fill: none; stroke: #ffa500; stroke-width: 1.5; stroke-linecap: round"/>
   </g>
   <g id="line2d_32">
    <defs>
     <path id="mf3f822c39d" d="M 0 3 
C 0.795609 3 1.55874 2.683901 2.12132 2.12132 
C 2.683901 1.55874 3 0.795609 3 0 
C 3 -0.795609 2.683901 -1.55874 2.12132 -2.12132 
C 1.55874 -2.683901 0.795609 -3 0 -3 
C -0.795609 -3 -1.55874 -2.683901 -2.12132 -2.12132 
C -2.683901 -1.55874 -3 -0.795609 -3 0 
C -3 0.795609 -2.683901 1.55874 -2.12132 2.12132 
C -1.55874 2.683901 -0.795609 3 0 3 
z
" style="stroke: #ffa500"/>
    </defs>
    <g clip-path="url(#pcd4cc36468)">
     <use xlink:href="#mf3f822c39d" x="85.630909" y="275.092354" style="fill: #ffa500; stroke: #ffa500"/>
     <use xlink:href="#mf3f822c39d" x="329.303636" y="324.607728" style="fill: #ffa500; stroke: #ffa500"/>
     <use xlink:href="#mf3f822c39d" x="816.649091" y="348.292145" style="fill: #ffa500; stroke: #ffa500"/>
    </g>
   </g>
   <g id="line2d_33">
    <path d="M 85.630909 131.447569 
L 329.303636 250.197527 
L 816.649091 313.802652 
" clip-path="url(#pcd4cc36468)" style="fill: none; stroke: #b22222; stroke-width: 1.5; stroke-linecap: round"/>
   </g>
   <g id="line2d_34">
    <defs>
     <path id="m676c6f2e52" d="M 0 3 
C 0.795609 3 1.55874 2.683901 2.12132 2.12132 
C 2.683901 1.55874 3 0.795609 3 0 
C 3 -0.795609 2.683901 -1.55874 2.12132 -2.12132 
C 1.55874 -2.683901 0.795609 -3 0 -3 
C -0.795609 -3 -1.55874 -2.683901 -2.12132 -2.12132 
C -2.683901 -1.55874 -3 -0.795609 -3 0 
C -3 0.795609 -2.683901 1.55874 -2.12132 2.12132 
C -1.55874 2.683901 -0.795609 3 0 3 
z
" style="stroke: #b22222"/>
    </defs>
    <g clip-path="url(#pcd4cc36468)">
     <use xlink:href="#m676c6f2e52" x="85.630909" y="131.447569" style="fill: #b22222; stroke: #b22222"/>
     <use xlink:href="#m676c6f2e52" x="329.303636" y="250.197527" style="fill: #b22222; stroke: #b22222"/>
     <use xlink:href="#m676c6f2e52" x="816.649091" y="313.802652" style="fill: #b22222; stroke: #b22222"/>
    </g>
   </g>
   <g id="patch_3">
    <path d="M 49.08 384.9 
L 49.08 30.48 
" style="fill: none"/>
   </g>
   <g id="patch_4">
    <path d="M 853.2 384.9 
L 853.2 30.48 
" style="fill: none"/>
   </g>
   <g id="patch_5">
    <path d="M 49.08 384.9 
L 853.2 384.9 
" style="fill: none"/>
   </g>
   <g id="patch_6">
    <path d="M 49.08 30.48 
L 853.2 30.48 
" style="fill: none"/>
   </g>
   <g id="text_16">
    <!-- Exponential Wait Times | 250 simulations -->
    <g style="fill: #262626" transform="translate(287.572031 24.48)scale(0.18 -0.18)">
     <defs>
      <path id="LiberationSans-45" d="M 525 0 
L 525 4403 
L 3866 4403 
L 3866 3916 
L 1122 3916 
L 1122 2503 
L 3678 2503 
L 3678 2022 
L 1122 2022 
L 1122 488 
L 3994 488 
L 3994 0 
L 525 0 
z
" transform="scale(0.015625)"/>
      <path id="LiberationSans-78" d="M 2503 0 
L 1594 1388 
L 678 0 
L 72 0 
L 1275 1738 
L 128 3381 
L 750 3381 
L 1594 2066 
L 2431 3381 
L 3059 3381 
L 1913 1744 
L 3131 0 
L 2503 0 
z
" transform="scale(0.015625)"/>
      <path id="LiberationSans-70" d="M 3291 1706 
Q 3291 -63 2047 -63 
Q 1266 -63 997 525 
L 981 525 
Q 994 500 994 -6 
L 994 -1328 
L 431 -1328 
L 431 2691 
Q 431 3213 413 3381 
L 956 3381 
Q 959 3369 965 3292 
Q 972 3216 980 3056 
Q 988 2897 988 2838 
L 1000 2838 
Q 1150 3150 1397 3295 
Q 1644 3441 2047 3441 
Q 2672 3441 2981 3022 
Q 3291 2603 3291 1706 
z
M 2700 1694 
Q 2700 2400 2509 2703 
Q 2319 3006 1903 3006 
Q 1569 3006 1380 2865 
Q 1191 2725 1092 2426 
Q 994 2128 994 1650 
Q 994 984 1206 668 
Q 1419 353 1897 353 
Q 2316 353 2508 661 
Q 2700 969 2700 1694 
z
" transform="scale(0.015625)"/>
      <path id="LiberationSans-6f" d="M 3291 1694 
Q 3291 806 2900 371 
Q 2509 -63 1766 -63 
Q 1025 -63 647 389 
Q 269 841 269 1694 
Q 269 3444 1784 3444 
Q 2559 3444 2925 3017 
Q 3291 2591 3291 1694 
z
M 2700 1694 
Q 2700 2394 2492 2711 
Q 2284 3028 1794 3028 
Q 1300 3028 1079 2704 
Q 859 2381 859 1694 
Q 859 1025 1076 689 
Q 1294 353 1759 353 
Q 2266 353 2483 678 
Q 2700 1003 2700 1694 
z
" transform="scale(0.015625)"/>
      <path id="LiberationSans-6e" d="M 2578 0 
L 2578 2144 
Q 2578 2478 2512 2662 
Q 2447 2847 2303 2928 
Q 2159 3009 1881 3009 
Q 1475 3009 1240 2731 
Q 1006 2453 1006 1959 
L 1006 0 
L 444 0 
L 444 2659 
Q 444 3250 425 3381 
L 956 3381 
Q 959 3366 962 3297 
Q 966 3228 970 3139 
Q 975 3050 981 2803 
L 991 2803 
Q 1184 3153 1439 3298 
Q 1694 3444 2072 3444 
Q 2628 3444 2886 3167 
Q 3144 2891 3144 2253 
L 3144 0 
L 2578 0 
z
" transform="scale(0.015625)"/>
      <path id="LiberationSans-74" d="M 1731 25 
Q 1453 -50 1163 -50 
Q 488 -50 488 716 
L 488 2972 
L 97 2972 
L 97 3381 
L 509 3381 
L 675 4138 
L 1050 4138 
L 1050 3381 
L 1675 3381 
L 1675 2972 
L 1050 2972 
L 1050 838 
Q 1050 594 1129 495 
Q 1209 397 1406 397 
Q 1519 397 1731 441 
L 1731 25 
z
" transform="scale(0.015625)"/>
      <path id="LiberationSans-61" d="M 1294 -63 
Q 784 -63 528 206 
Q 272 475 272 944 
Q 272 1469 617 1750 
Q 963 2031 1731 2050 
L 2491 2063 
L 2491 2247 
Q 2491 2659 2316 2837 
Q 2141 3016 1766 3016 
Q 1388 3016 1216 2887 
Q 1044 2759 1009 2478 
L 422 2531 
Q 566 3444 1778 3444 
Q 2416 3444 2737 3151 
Q 3059 2859 3059 2306 
L 3059 850 
Q 3059 600 3125 473 
Q 3191 347 3375 347 
Q 3456 347 3559 369 
L 3559 19 
Q 3347 -31 3125 -31 
Q 2813 -31 2670 133 
Q 2528 297 2509 647 
L 2491 647 
Q 2275 259 1989 98 
Q 1703 -63 1294 -63 
z
M 1422 359 
Q 1731 359 1972 500 
Q 2213 641 2352 886 
Q 2491 1131 2491 1391 
L 2491 1669 
L 1875 1656 
Q 1478 1650 1273 1575 
Q 1069 1500 959 1344 
Q 850 1188 850 934 
Q 850 659 998 509 
Q 1147 359 1422 359 
z
" transform="scale(0.015625)"/>
      <path id="LiberationSans-6c" d="M 431 0 
L 431 4638 
L 994 4638 
L 994 0 
L 431 0 
z
" transform="scale(0.015625)"/>
      <path id="LiberationSans-57" d="M 4722 0 
L 4009 0 
L 3247 2797 
Q 3172 3059 3028 3738 
Q 2947 3375 2890 3131 
Q 2834 2888 2038 0 
L 1325 0 
L 28 4403 
L 650 4403 
L 1441 1606 
Q 1581 1081 1700 525 
Q 1775 869 1873 1275 
Q 1972 1681 2741 4403 
L 3313 4403 
L 4078 1663 
Q 4253 991 4353 525 
L 4381 634 
Q 4466 994 4519 1220 
Q 4572 1447 5397 4403 
L 6019 4403 
L 4722 0 
z
" transform="scale(0.015625)"/>
      <path id="LiberationSans-73" d="M 2969 934 
Q 2969 456 2608 196 
Q 2247 -63 1597 -63 
Q 966 -63 623 145 
Q 281 353 178 794 
L 675 891 
Q 747 619 972 492 
Q 1197 366 1597 366 
Q 2025 366 2223 497 
Q 2422 628 2422 891 
Q 2422 1091 2284 1216 
Q 2147 1341 1841 1422 
L 1438 1528 
Q 953 1653 748 1773 
Q 544 1894 428 2066 
Q 313 2238 313 2488 
Q 313 2950 642 3192 
Q 972 3434 1603 3434 
Q 2163 3434 2492 3237 
Q 2822 3041 2909 2606 
L 2403 2544 
Q 2356 2769 2151 2889 
Q 1947 3009 1603 3009 
Q 1222 3009 1040 2893 
Q 859 2778 859 2544 
Q 859 2400 934 2306 
Q 1009 2213 1156 2147 
Q 1303 2081 1775 1966 
Q 2222 1853 2419 1758 
Q 2616 1663 2730 1547 
Q 2844 1431 2906 1279 
Q 2969 1128 2969 934 
z
" transform="scale(0.015625)"/>
      <path id="LiberationSans-7c" d="M 572 -1356 
L 572 4638 
L 1091 4638 
L 1091 -1356 
L 572 -1356 
z
" transform="scale(0.015625)"/>
     </defs>
     <use xlink:href="#LiberationSans-45"/>
     <use xlink:href="#LiberationSans-78" x="66.699219"/>
     <use xlink:href="#LiberationSans-70" x="116.699219"/>
     <use xlink:href="#LiberationSans-6f" x="172.314453"/>
     <use xlink:href="#LiberationSans-6e" x="227.929688"/>
     <use xlink:href="#LiberationSans-65" x="283.544922"/>
     <use xlink:href="#LiberationSans-6e" x="339.160156"/>
     <use xlink:href="#LiberationSans-74" x="394.775391"/>
     <use xlink:href="#LiberationSans-69" x="422.558594"/>
     <use xlink:href="#LiberationSans-61" x="444.775391"/>
     <use xlink:href="#LiberationSans-6c" x="500.390625"/>
     <use xlink:href="#LiberationSans-20" x="522.607422"/>
     <use xlink:href="#LiberationSans-57" x="550.390625"/>
     <use xlink:href="#LiberationSans-61" x="641.025391"/>
     <use xlink:href="#LiberationSans-69" x="696.640625"/>
     <use xlink:href="#LiberationSans-74" x="718.857422"/>
     <use xlink:href="#LiberationSans-20" x="746.640625"/>
     <use xlink:href="#LiberationSans-54" x="772.673828"/>
     <use xlink:href="#LiberationSans-69" x="830.007812"/>
     <use xlink:href="#LiberationSans-6d" x="852.224609"/>
     <use xlink:href="#LiberationSans-65" x="935.525391"/>
     <use xlink:href="#LiberationSans-73" x="991.140625"/>
     <use xlink:href="#LiberationSans-20" x="1041.140625"/>
     <use xlink:href="#LiberationSans-7c" x="1068.923828"/>
     <use xlink:href="#LiberationSans-20" x="1094.900391"/>
     <use xlink:href="#LiberationSans-32" x="1122.683594"/>
     <use xlink:href="#LiberationSans-35" x="1178.298828"/>
     <use xlink:href="#LiberationSans-30" x="1233.914062"/>
     <use xlink:href="#LiberationSans-20" x="1289.529297"/>
     <use xlink:href="#LiberationSans-73" x="1317.3125"/>
     <use xlink:href="#LiberationSans-69" x="1367.3125"/>
     <use xlink:href="#LiberationSans-6d" x="1389.529297"/>
     <use xlink:href="#LiberationSans-75" x="1472.830078"/>
     <use xlink:href="#LiberationSans-6c" x="1528.445312"/>
     <use xlink:href="#LiberationSans-61" x="1550.662109"/>
     <use xlink:href="#LiberationSans-74" x="1606.277344"/>
     <use xlink:href="#LiberationSans-69" x="1634.060547"/>
     <use xlink:href="#LiberationSans-6f" x="1656.277344"/>
     <use xlink:href="#LiberationSans-6e" x="1711.892578"/>
     <use xlink:href="#LiberationSans-73" x="1767.507812"/>
    </g>
   </g>
   <g id="legend_1">
    <g id="line2d_35">
     <path d="M 734.76 48.68 
L 748.76 48.68 
L 762.76 48.68 
" style="fill: none; stroke: #9acd32; stroke-width: 1.5; stroke-linecap: round"/>
    </g>
    <g id="text_17">
     <!-- ($\rho = 0.4$) -->
     <g style="fill: #262626" transform="translate(773.96 53.58)scale(0.14 -0.14)">
      <defs>
       <path id="LiberationSans-28" d="M 397 1663 
Q 397 2566 680 3284 
Q 963 4003 1550 4638 
L 2094 4638 
Q 1509 3988 1236 3256 
Q 963 2525 963 1656 
Q 963 791 1233 62 
Q 1503 -666 2094 -1325 
L 1550 -1325 
Q 959 -688 678 32 
Q 397 753 397 1650 
L 397 1663 
z
" transform="scale(0.015625)"/>
       <path id="DejaVuSans-Oblique-3c1" d="M 1203 2875 
Q 1453 3194 1981 3475 
Q 2188 3584 2756 3584 
Q 3394 3584 3694 3078 
Q 3994 2572 3834 1747 
Q 3672 922 3175 415 
Q 2678 -91 2041 -91 
Q 1656 -91 1409 63 
Q 1163 213 1044 525 
L 681 -1331 
L 103 -1331 
L 697 1716 
Q 838 2438 1203 2875 
z
M 3238 1747 
Q 3359 2381 3169 2744 
Q 2978 3103 2522 3103 
Q 2066 3103 1734 2744 
Q 1403 2381 1281 1747 
Q 1156 1113 1347 750 
Q 1538 391 1994 391 
Q 2450 391 2781 750 
Q 3113 1113 3238 1747 
z
" transform="scale(0.015625)"/>
       <path id="DejaVuSans-3d" d="M 678 2906 
L 4684 2906 
L 4684 2381 
L 678 2381 
L 678 2906 
z
M 678 1631 
L 4684 1631 
L 4684 1100 
L 678 1100 
L 678 1631 
z
" transform="scale(0.015625)"/>
       <path id="DejaVuSans-30" d="M 2034 4250 
Q 1547 4250 1301 3770 
Q 1056 3291 1056 2328 
Q 1056 1369 1301 889 
Q 1547 409 2034 409 
Q 2525 409 2770 889 
Q 3016 1369 3016 2328 
Q 3016 3291 2770 3770 
Q 2525 4250 2034 4250 
z
M 2034 4750 
Q 2819 4750 3233 4129 
Q 3647 3509 3647 2328 
Q 3647 1150 3233 529 
Q 2819 -91 2034 -91 
Q 1250 -91 836 529 
Q 422 1150 422 2328 
Q 422 3509 836 4129 
Q 1250 4750 2034 4750 
z
" transform="scale(0.015625)"/>
       <path id="DejaVuSans-2e" d="M 684 794 
L 1344 794 
L 1344 0 
L 684 0 
L 684 794 
z
" transform="scale(0.015625)"/>
       <path id="DejaVuSans-34" d="M 2419 4116 
L 825 1625 
L 2419 1625 
L 2419 4116 
z
M 2253 4666 
L 3047 4666 
L 3047 1625 
L 3713 1625 
L 3713 1100 
L 3047 1100 
L 3047 0 
L 2419 0 
L 2419 1100 
L 313 1100 
L 313 1709 
L 2253 4666 
z
" transform="scale(0.015625)"/>
       <path id="LiberationSans-29" d="M 1734 1650 
Q 1734 747 1451 28 
Q 1169 -691 581 -1325 
L 38 -1325 
Q 625 -669 897 57 
Q 1169 784 1169 1656 
Q 1169 2528 895 3256 
Q 622 3984 38 4638 
L 581 4638 
Q 1172 4000 1453 3279 
Q 1734 2559 1734 1663 
L 1734 1650 
z
" transform="scale(0.015625)"/>
      </defs>
      <use xlink:href="#LiberationSans-28" transform="translate(0 0.78125)"/>
      <use xlink:href="#DejaVuSans-Oblique-3c1" transform="translate(33.300781 0.78125)"/>
      <use xlink:href="#DejaVuSans-3d" transform="translate(116.259766 0.78125)"/>
      <use xlink:href="#DejaVuSans-30" transform="translate(219.53125 0.78125)"/>
      <use xlink:href="#DejaVuSans-2e" transform="translate(283.154297 0.78125)"/>
      <use xlink:href="#DejaVuSans-34" transform="translate(314.941406 0.78125)"/>
      <use xlink:href="#LiberationSans-29" transform="translate(378.564453 0.78125)"/>
     </g>
    </g>
    <g id="line2d_36">
     <path d="M 734.76 69.12 
L 748.76 69.12 
L 762.76 69.12 
" style="fill: none; stroke: #daa520; stroke-width: 1.5; stroke-linecap: round"/>
    </g>
    <g id="text_18">
     <!-- ($\rho = 0.77$) -->
     <g style="fill: #262626" transform="translate(773.96 74.02)scale(0.14 -0.14)">
      <defs>
       <path id="DejaVuSans-37" d="M 525 4666 
L 3525 4666 
L 3525 4397 
L 1831 0 
L 1172 0 
L 2766 4134 
L 525 4134 
L 525 4666 
z
" transform="scale(0.015625)"/>
      </defs>
      <use xlink:href="#LiberationSans-28" transform="translate(0 0.78125)"/>
      <use xlink:href="#DejaVuSans-Oblique-3c1" transform="translate(33.300781 0.78125)"/>
      <use xlink:href="#DejaVuSans-3d" transform="translate(116.259766 0.78125)"/>
      <use xlink:href="#DejaVuSans-30" transform="translate(219.53125 0.78125)"/>
      <use xlink:href="#DejaVuSans-2e" transform="translate(283.154297 0.78125)"/>
      <use xlink:href="#DejaVuSans-37" transform="translate(307.191406 0.78125)"/>
      <use xlink:href="#DejaVuSans-37" transform="translate(369.064453 0.78125)"/>
      <use xlink:href="#LiberationSans-29" transform="translate(432.6875 0.78125)"/>
     </g>
    </g>
    <g id="line2d_37">
     <path d="M 734.76 89.56 
L 748.76 89.56 
L 762.76 89.56 
" style="fill: none; stroke: #ffa500; stroke-width: 1.5; stroke-linecap: round"/>
    </g>
    <g id="text_19">
     <!-- ($\rho = 0.88$) -->
     <g style="fill: #262626" transform="translate(773.96 94.46)scale(0.14 -0.14)">
      <defs>
       <path id="DejaVuSans-38" d="M 2034 2216 
Q 1584 2216 1326 1975 
Q 1069 1734 1069 1313 
Q 1069 891 1326 650 
Q 1584 409 2034 409 
Q 2484 409 2743 651 
Q 3003 894 3003 1313 
Q 3003 1734 2745 1975 
Q 2488 2216 2034 2216 
z
M 1403 2484 
Q 997 2584 770 2862 
Q 544 3141 544 3541 
Q 544 4100 942 4425 
Q 1341 4750 2034 4750 
Q 2731 4750 3128 4425 
Q 3525 4100 3525 3541 
Q 3525 3141 3298 2862 
Q 3072 2584 2669 2484 
Q 3125 2378 3379 2068 
Q 3634 1759 3634 1313 
Q 3634 634 3220 271 
Q 2806 -91 2034 -91 
Q 1263 -91 848 271 
Q 434 634 434 1313 
Q 434 1759 690 2068 
Q 947 2378 1403 2484 
z
M 1172 3481 
Q 1172 3119 1398 2916 
Q 1625 2713 2034 2713 
Q 2441 2713 2670 2916 
Q 2900 3119 2900 3481 
Q 2900 3844 2670 4047 
Q 2441 4250 2034 4250 
Q 1625 4250 1398 4047 
Q 1172 3844 1172 3481 
z
" transform="scale(0.015625)"/>
      </defs>
      <use xlink:href="#LiberationSans-28" transform="translate(0 0.78125)"/>
      <use xlink:href="#DejaVuSans-Oblique-3c1" transform="translate(33.300781 0.78125)"/>
      <use xlink:href="#DejaVuSans-3d" transform="translate(116.259766 0.78125)"/>
      <use xlink:href="#DejaVuSans-30" transform="translate(219.53125 0.78125)"/>
      <use xlink:href="#DejaVuSans-2e" transform="translate(283.154297 0.78125)"/>
      <use xlink:href="#DejaVuSans-38" transform="translate(312.316406 0.78125)"/>
      <use xlink:href="#DejaVuSans-38" transform="translate(375.939453 0.78125)"/>
      <use xlink:href="#LiberationSans-29" transform="translate(439.5625 0.78125)"/>
     </g>
    </g>
    <g id="line2d_38">
     <path d="M 734.76 110 
L 748.76 110 
L 762.76 110 
" style="fill: none; stroke: #b22222; stroke-width: 1.5; stroke-linecap: round"/>
    </g>
    <g id="text_20">
     <!-- ($\rho = 0.95$) -->
     <g style="fill: #262626" transform="translate(773.96 114.9)scale(0.14 -0.14)">
      <defs>
       <path id="DejaVuSans-39" d="M 703 97 
L 703 672 
Q 941 559 1184 500 
Q 1428 441 1663 441 
Q 2288 441 2617 861 
Q 2947 1281 2994 2138 
Q 2813 1869 2534 1725 
Q 2256 1581 1919 1581 
Q 1219 1581 811 2004 
Q 403 2428 403 3163 
Q 403 3881 828 4315 
Q 1253 4750 1959 4750 
Q 2769 4750 3195 4129 
Q 3622 3509 3622 2328 
Q 3622 1225 3098 567 
Q 2575 -91 1691 -91 
Q 1453 -91 1209 -44 
Q 966 3 703 97 
z
M 1959 2075 
Q 2384 2075 2632 2365 
Q 2881 2656 2881 3163 
Q 2881 3666 2632 3958 
Q 2384 4250 1959 4250 
Q 1534 4250 1286 3958 
Q 1038 3666 1038 3163 
Q 1038 2656 1286 2365 
Q 1534 2075 1959 2075 
z
" transform="scale(0.015625)"/>
       <path id="DejaVuSans-35" d="M 691 4666 
L 3169 4666 
L 3169 4134 
L 1269 4134 
L 1269 2991 
Q 1406 3038 1543 3061 
Q 1681 3084 1819 3084 
Q 2600 3084 3056 2656 
Q 3513 2228 3513 1497 
Q 3513 744 3044 326 
Q 2575 -91 1722 -91 
Q 1428 -91 1123 -41 
Q 819 9 494 109 
L 494 744 
Q 775 591 1075 516 
Q 1375 441 1709 441 
Q 2250 441 2565 725 
Q 2881 1009 2881 1497 
Q 2881 1984 2565 2268 
Q 2250 2553 1709 2553 
Q 1456 2553 1204 2497 
Q 953 2441 691 2322 
L 691 4666 
z
" transform="scale(0.015625)"/>
      </defs>
      <use xlink:href="#LiberationSans-28" transform="translate(0 0.78125)"/>
      <use xlink:href="#DejaVuSans-Oblique-3c1" transform="translate(33.300781 0.78125)"/>
      <use xlink:href="#DejaVuSans-3d" transform="translate(116.259766 0.78125)"/>
      <use xlink:href="#DejaVuSans-30" transform="translate(219.53125 0.78125)"/>
      <use xlink:href="#DejaVuSans-2e" transform="translate(283.154297 0.78125)"/>
      <use xlink:href="#DejaVuSans-39" transform="translate(314.941406 0.78125)"/>
      <use xlink:href="#DejaVuSans-35" transform="translate(378.564453 0.78125)"/>
      <use xlink:href="#LiberationSans-29" transform="translate(442.1875 0.78125)"/>
     </g>
    </g>
   </g>
  </g>
 </g>
 <defs>
  <clipPath id="pcd4cc36468">
   <rect x="49.08" y="30.48" width="804.12" height="354.42"/>
  </clipPath>
 </defs>
</svg>
