<?xml version="1.0" encoding="utf-8" standalone="no"?>
<!DOCTYPE svg PUBLIC "-//W3C//DTD SVG 1.1//EN"
  "http://www.w3.org/Graphics/SVG/1.1/DTD/svg11.dtd">
<svg xmlns:xlink="http://www.w3.org/1999/xlink" width="864pt" height="432pt" viewBox="0 0 864 432" xmlns="http://www.w3.org/2000/svg" version="1.1">
 <metadata>
  <rdf:RDF xmlns:dc="http://purl.org/dc/elements/1.1/" xmlns:cc="http://creativecommons.org/ns#" xmlns:rdf="http://www.w3.org/1999/02/22-rdf-syntax-ns#">
   <cc:Work>
    <dc:type rdf:resource="http://purl.org/dc/dcmitype/StillImage"/>
    <dc:date>2022-12-06T10:17:09.940237</dc:date>
    <dc:format>image/svg+xml</dc:format>
    <dc:creator>
     <cc:Agent>
      <dc:title>Matplotlib v3.5.2, https://matplotlib.org/</dc:title>
     </cc:Agent>
    </dc:creator>
   </cc:Work>
  </rdf:RDF>
 </metadata>
 <defs>
  <style type="text/css">*{stroke-linejoin: round; stroke-linecap: butt}</style>
 </defs>
 <g id="figure_1">
  <g id="patch_1">
   <path d="M 0 432 
L 864 432 
L 864 0 
L 0 0 
z
" style="fill: #ffffff"/>
  </g>
  <g id="axes_1">
   <g id="patch_2">
    <path d="M 25.46 388.5 
L 853.2 388.5 
L 853.2 28.32 
L 25.46 28.32 
z
" style="fill: #eaeaf2"/>
   </g>
   <g id="matplotlib.axis_1">
    <g id="xtick_1">
     <g id="line2d_1">
      <path d="M 63.084545 388.5 
L 63.084545 28.32 
" clip-path="url(#p66162778f3)" style="fill: none; stroke: #ffffff; stroke-width: 0.8; stroke-linecap: round"/>
     </g>
     <g id="line2d_2"/>
     <g id="text_1">
      <!-- 0.4 -->
      <g style="fill: #262626" transform="translate(56.134545 399.246875)scale(0.1 -0.1)">
       <defs>
        <path id="LiberationSans-30" d="M 3309 2203 
Q 3309 1100 2920 518 
Q 2531 -63 1772 -63 
Q 1013 -63 631 515 
Q 250 1094 250 2203 
Q 250 3338 620 3903 
Q 991 4469 1791 4469 
Q 2569 4469 2939 3897 
Q 3309 3325 3309 2203 
z
M 2738 2203 
Q 2738 3156 2517 3584 
Q 2297 4013 1791 4013 
Q 1272 4013 1045 3591 
Q 819 3169 819 2203 
Q 819 1266 1048 831 
Q 1278 397 1778 397 
Q 2275 397 2506 840 
Q 2738 1284 2738 2203 
z
" transform="scale(0.015625)"/>
        <path id="LiberationSans-2e" d="M 584 0 
L 584 684 
L 1194 684 
L 1194 0 
L 584 0 
z
" transform="scale(0.015625)"/>
        <path id="LiberationSans-34" d="M 2753 997 
L 2753 0 
L 2222 0 
L 2222 997 
L 147 997 
L 147 1434 
L 2163 4403 
L 2753 4403 
L 2753 1441 
L 3372 1441 
L 3372 997 
L 2753 997 
z
M 2222 3769 
Q 2216 3750 2134 3603 
Q 2053 3456 2013 3397 
L 884 1734 
L 716 1503 
L 666 1441 
L 2222 1441 
L 2222 3769 
z
" transform="scale(0.015625)"/>
       </defs>
       <use xlink:href="#LiberationSans-30"/>
       <use xlink:href="#LiberationSans-2e" x="55.615234"/>
       <use xlink:href="#LiberationSans-34" x="83.398438"/>
      </g>
     </g>
    </g>
    <g id="xtick_2">
     <g id="line2d_3">
      <path d="M 199.901074 388.5 
L 199.901074 28.32 
" clip-path="url(#p66162778f3)" style="fill: none; stroke: #ffffff; stroke-width: 0.8; stroke-linecap: round"/>
     </g>
     <g id="line2d_4"/>
     <g id="text_2">
      <!-- 0.5 -->
      <g style="fill: #262626" transform="translate(192.951074 399.246875)scale(0.1 -0.1)">
       <defs>
        <path id="LiberationSans-35" d="M 3291 1434 
Q 3291 738 2877 337 
Q 2463 -63 1728 -63 
Q 1113 -63 734 206 
Q 356 475 256 984 
L 825 1050 
Q 1003 397 1741 397 
Q 2194 397 2450 670 
Q 2706 944 2706 1422 
Q 2706 1838 2448 2094 
Q 2191 2350 1753 2350 
Q 1525 2350 1328 2278 
Q 1131 2206 934 2034 
L 384 2034 
L 531 4403 
L 3034 4403 
L 3034 3925 
L 1044 3925 
L 959 2528 
Q 1325 2809 1869 2809 
Q 2519 2809 2905 2428 
Q 3291 2047 3291 1434 
z
" transform="scale(0.015625)"/>
       </defs>
       <use xlink:href="#LiberationSans-30"/>
       <use xlink:href="#LiberationSans-2e" x="55.615234"/>
       <use xlink:href="#LiberationSans-35" x="83.398438"/>
      </g>
     </g>
    </g>
    <g id="xtick_3">
     <g id="line2d_5">
      <path d="M 336.717603 388.5 
L 336.717603 28.32 
" clip-path="url(#p66162778f3)" style="fill: none; stroke: #ffffff; stroke-width: 0.8; stroke-linecap: round"/>
     </g>
     <g id="line2d_6"/>
     <g id="text_3">
      <!-- 0.6 -->
      <g style="fill: #262626" transform="translate(329.767603 399.246875)scale(0.1 -0.1)">
       <defs>
        <path id="LiberationSans-36" d="M 3278 1441 
Q 3278 744 2900 340 
Q 2522 -63 1856 -63 
Q 1113 -63 719 490 
Q 325 1044 325 2100 
Q 325 3244 734 3856 
Q 1144 4469 1900 4469 
Q 2897 4469 3156 3572 
L 2619 3475 
Q 2453 4013 1894 4013 
Q 1413 4013 1148 3564 
Q 884 3116 884 2266 
Q 1038 2550 1316 2698 
Q 1594 2847 1953 2847 
Q 2563 2847 2920 2465 
Q 3278 2084 3278 1441 
z
M 2706 1416 
Q 2706 1894 2472 2153 
Q 2238 2413 1819 2413 
Q 1425 2413 1183 2183 
Q 941 1953 941 1550 
Q 941 1041 1192 716 
Q 1444 391 1838 391 
Q 2244 391 2475 664 
Q 2706 938 2706 1416 
z
" transform="scale(0.015625)"/>
       </defs>
       <use xlink:href="#LiberationSans-30"/>
       <use xlink:href="#LiberationSans-2e" x="55.615234"/>
       <use xlink:href="#LiberationSans-36" x="83.398438"/>
      </g>
     </g>
    </g>
    <g id="xtick_4">
     <g id="line2d_7">
      <path d="M 473.534132 388.5 
L 473.534132 28.32 
" clip-path="url(#p66162778f3)" style="fill: none; stroke: #ffffff; stroke-width: 0.8; stroke-linecap: round"/>
     </g>
     <g id="line2d_8"/>
     <g id="text_4">
      <!-- 0.7 -->
      <g style="fill: #262626" transform="translate(466.584132 399.246875)scale(0.1 -0.1)">
       <defs>
        <path id="LiberationSans-37" d="M 3238 3947 
Q 2563 2916 2284 2331 
Q 2006 1747 1867 1178 
Q 1728 609 1728 0 
L 1141 0 
Q 1141 844 1498 1776 
Q 1856 2709 2694 3925 
L 328 3925 
L 328 4403 
L 3238 4403 
L 3238 3947 
z
" transform="scale(0.015625)"/>
       </defs>
       <use xlink:href="#LiberationSans-30"/>
       <use xlink:href="#LiberationSans-2e" x="55.615234"/>
       <use xlink:href="#LiberationSans-37" x="83.398438"/>
      </g>
     </g>
    </g>
    <g id="xtick_5">
     <g id="line2d_9">
      <path d="M 610.350661 388.5 
L 610.350661 28.32 
" clip-path="url(#p66162778f3)" style="fill: none; stroke: #ffffff; stroke-width: 0.8; stroke-linecap: round"/>
     </g>
     <g id="line2d_10"/>
     <g id="text_5">
      <!-- 0.8 -->
      <g style="fill: #262626" transform="translate(603.400661 399.246875)scale(0.1 -0.1)">
       <defs>
        <path id="LiberationSans-38" d="M 3281 1228 
Q 3281 619 2893 278 
Q 2506 -63 1781 -63 
Q 1075 -63 676 271 
Q 278 606 278 1222 
Q 278 1653 525 1947 
Q 772 2241 1156 2303 
L 1156 2316 
Q 797 2400 589 2681 
Q 381 2963 381 3341 
Q 381 3844 757 4156 
Q 1134 4469 1769 4469 
Q 2419 4469 2795 4162 
Q 3172 3856 3172 3334 
Q 3172 2956 2962 2675 
Q 2753 2394 2391 2322 
L 2391 2309 
Q 2813 2241 3047 1952 
Q 3281 1663 3281 1228 
z
M 2588 3303 
Q 2588 4050 1769 4050 
Q 1372 4050 1164 3862 
Q 956 3675 956 3303 
Q 956 2925 1170 2726 
Q 1384 2528 1775 2528 
Q 2172 2528 2380 2711 
Q 2588 2894 2588 3303 
z
M 2697 1281 
Q 2697 1691 2453 1898 
Q 2209 2106 1769 2106 
Q 1341 2106 1100 1882 
Q 859 1659 859 1269 
Q 859 359 1788 359 
Q 2247 359 2472 579 
Q 2697 800 2697 1281 
z
" transform="scale(0.015625)"/>
       </defs>
       <use xlink:href="#LiberationSans-30"/>
       <use xlink:href="#LiberationSans-2e" x="55.615234"/>
       <use xlink:href="#LiberationSans-38" x="83.398438"/>
      </g>
     </g>
    </g>
    <g id="xtick_6">
     <g id="line2d_11">
      <path d="M 747.16719 388.5 
L 747.16719 28.32 
" clip-path="url(#p66162778f3)" style="fill: none; stroke: #ffffff; stroke-width: 0.8; stroke-linecap: round"/>
     </g>
     <g id="line2d_12"/>
     <g id="text_6">
      <!-- 0.9 -->
      <g style="fill: #262626" transform="translate(740.21719 399.246875)scale(0.1 -0.1)">
       <defs>
        <path id="LiberationSans-39" d="M 3256 2291 
Q 3256 1156 2842 546 
Q 2428 -63 1663 -63 
Q 1147 -63 836 154 
Q 525 372 391 856 
L 928 941 
Q 1097 391 1672 391 
Q 2156 391 2422 841 
Q 2688 1291 2700 2125 
Q 2575 1844 2272 1673 
Q 1969 1503 1606 1503 
Q 1013 1503 656 1909 
Q 300 2316 300 2988 
Q 300 3678 687 4073 
Q 1075 4469 1766 4469 
Q 2500 4469 2878 3925 
Q 3256 3381 3256 2291 
z
M 2644 2834 
Q 2644 3366 2400 3689 
Q 2156 4013 1747 4013 
Q 1341 4013 1106 3736 
Q 872 3459 872 2988 
Q 872 2506 1106 2226 
Q 1341 1947 1741 1947 
Q 1984 1947 2193 2058 
Q 2403 2169 2523 2372 
Q 2644 2575 2644 2834 
z
" transform="scale(0.015625)"/>
       </defs>
       <use xlink:href="#LiberationSans-30"/>
       <use xlink:href="#LiberationSans-2e" x="55.615234"/>
       <use xlink:href="#LiberationSans-39" x="83.398438"/>
      </g>
     </g>
    </g>
    <g id="text_7">
     <!-- System Load -->
     <g style="fill: #262626" transform="translate(392.64125 416.916875)scale(0.16 -0.16)">
      <defs>
       <path id="LiberationSans-53" d="M 3975 1216 
Q 3975 606 3498 271 
Q 3022 -63 2156 -63 
Q 547 -63 291 1056 
L 869 1172 
Q 969 775 1294 589 
Q 1619 403 2178 403 
Q 2756 403 3070 601 
Q 3384 800 3384 1184 
Q 3384 1400 3286 1534 
Q 3188 1669 3009 1756 
Q 2831 1844 2584 1903 
Q 2338 1963 2038 2031 
Q 1516 2147 1245 2262 
Q 975 2378 819 2520 
Q 663 2663 580 2853 
Q 497 3044 497 3291 
Q 497 3856 930 4162 
Q 1363 4469 2169 4469 
Q 2919 4469 3316 4239 
Q 3713 4009 3872 3456 
L 3284 3353 
Q 3188 3703 2916 3861 
Q 2644 4019 2163 4019 
Q 1634 4019 1356 3844 
Q 1078 3669 1078 3322 
Q 1078 3119 1186 2986 
Q 1294 2853 1497 2761 
Q 1700 2669 2306 2534 
Q 2509 2488 2711 2439 
Q 2913 2391 3097 2323 
Q 3281 2256 3442 2165 
Q 3603 2075 3722 1944 
Q 3841 1813 3908 1634 
Q 3975 1456 3975 1216 
z
" transform="scale(0.015625)"/>
       <path id="LiberationSans-79" d="M 597 -1328 
Q 366 -1328 209 -1294 
L 209 -872 
Q 328 -891 472 -891 
Q 997 -891 1303 -119 
L 1356 16 
L 16 3381 
L 616 3381 
L 1328 1513 
Q 1344 1469 1366 1408 
Q 1388 1347 1506 1000 
Q 1625 653 1634 613 
L 1853 1228 
L 2594 3381 
L 3188 3381 
L 1888 0 
Q 1678 -541 1497 -805 
Q 1316 -1069 1095 -1198 
Q 875 -1328 597 -1328 
z
" transform="scale(0.015625)"/>
       <path id="LiberationSans-73" d="M 2969 934 
Q 2969 456 2608 196 
Q 2247 -63 1597 -63 
Q 966 -63 623 145 
Q 281 353 178 794 
L 675 891 
Q 747 619 972 492 
Q 1197 366 1597 366 
Q 2025 366 2223 497 
Q 2422 628 2422 891 
Q 2422 1091 2284 1216 
Q 2147 1341 1841 1422 
L 1438 1528 
Q 953 1653 748 1773 
Q 544 1894 428 2066 
Q 313 2238 313 2488 
Q 313 2950 642 3192 
Q 972 3434 1603 3434 
Q 2163 3434 2492 3237 
Q 2822 3041 2909 2606 
L 2403 2544 
Q 2356 2769 2151 2889 
Q 1947 3009 1603 3009 
Q 1222 3009 1040 2893 
Q 859 2778 859 2544 
Q 859 2400 934 2306 
Q 1009 2213 1156 2147 
Q 1303 2081 1775 1966 
Q 2222 1853 2419 1758 
Q 2616 1663 2730 1547 
Q 2844 1431 2906 1279 
Q 2969 1128 2969 934 
z
" transform="scale(0.015625)"/>
       <path id="LiberationSans-74" d="M 1731 25 
Q 1453 -50 1163 -50 
Q 488 -50 488 716 
L 488 2972 
L 97 2972 
L 97 3381 
L 509 3381 
L 675 4138 
L 1050 4138 
L 1050 3381 
L 1675 3381 
L 1675 2972 
L 1050 2972 
L 1050 838 
Q 1050 594 1129 495 
Q 1209 397 1406 397 
Q 1519 397 1731 441 
L 1731 25 
z
" transform="scale(0.015625)"/>
       <path id="LiberationSans-65" d="M 863 1572 
Q 863 991 1103 675 
Q 1344 359 1806 359 
Q 2172 359 2392 506 
Q 2613 653 2691 878 
L 3184 738 
Q 2881 -63 1806 -63 
Q 1056 -63 664 384 
Q 272 831 272 1713 
Q 272 2550 664 2997 
Q 1056 3444 1784 3444 
Q 3275 3444 3275 1647 
L 3275 1572 
L 863 1572 
z
M 2694 2003 
Q 2647 2538 2422 2783 
Q 2197 3028 1775 3028 
Q 1366 3028 1127 2754 
Q 888 2481 869 2003 
L 2694 2003 
z
" transform="scale(0.015625)"/>
       <path id="LiberationSans-6d" d="M 2400 0 
L 2400 2144 
Q 2400 2634 2265 2821 
Q 2131 3009 1781 3009 
Q 1422 3009 1212 2734 
Q 1003 2459 1003 1959 
L 1003 0 
L 444 0 
L 444 2659 
Q 444 3250 425 3381 
L 956 3381 
Q 959 3366 962 3297 
Q 966 3228 970 3139 
Q 975 3050 981 2803 
L 991 2803 
Q 1172 3163 1406 3303 
Q 1641 3444 1978 3444 
Q 2363 3444 2586 3291 
Q 2809 3138 2897 2803 
L 2906 2803 
Q 3081 3144 3329 3294 
Q 3578 3444 3931 3444 
Q 4444 3444 4676 3166 
Q 4909 2888 4909 2253 
L 4909 0 
L 4353 0 
L 4353 2144 
Q 4353 2634 4218 2821 
Q 4084 3009 3734 3009 
Q 3366 3009 3161 2736 
Q 2956 2463 2956 1959 
L 2956 0 
L 2400 0 
z
" transform="scale(0.015625)"/>
       <path id="LiberationSans-20" transform="scale(0.015625)"/>
       <path id="LiberationSans-4c" d="M 525 0 
L 525 4403 
L 1122 4403 
L 1122 488 
L 3347 488 
L 3347 0 
L 525 0 
z
" transform="scale(0.015625)"/>
       <path id="LiberationSans-6f" d="M 3291 1694 
Q 3291 806 2900 371 
Q 2509 -63 1766 -63 
Q 1025 -63 647 389 
Q 269 841 269 1694 
Q 269 3444 1784 3444 
Q 2559 3444 2925 3017 
Q 3291 2591 3291 1694 
z
M 2700 1694 
Q 2700 2394 2492 2711 
Q 2284 3028 1794 3028 
Q 1300 3028 1079 2704 
Q 859 2381 859 1694 
Q 859 1025 1076 689 
Q 1294 353 1759 353 
Q 2266 353 2483 678 
Q 2700 1003 2700 1694 
z
" transform="scale(0.015625)"/>
       <path id="LiberationSans-61" d="M 1294 -63 
Q 784 -63 528 206 
Q 272 475 272 944 
Q 272 1469 617 1750 
Q 963 2031 1731 2050 
L 2491 2063 
L 2491 2247 
Q 2491 2659 2316 2837 
Q 2141 3016 1766 3016 
Q 1388 3016 1216 2887 
Q 1044 2759 1009 2478 
L 422 2531 
Q 566 3444 1778 3444 
Q 2416 3444 2737 3151 
Q 3059 2859 3059 2306 
L 3059 850 
Q 3059 600 3125 473 
Q 3191 347 3375 347 
Q 3456 347 3559 369 
L 3559 19 
Q 3347 -31 3125 -31 
Q 2813 -31 2670 133 
Q 2528 297 2509 647 
L 2491 647 
Q 2275 259 1989 98 
Q 1703 -63 1294 -63 
z
M 1422 359 
Q 1731 359 1972 500 
Q 2213 641 2352 886 
Q 2491 1131 2491 1391 
L 2491 1669 
L 1875 1656 
Q 1478 1650 1273 1575 
Q 1069 1500 959 1344 
Q 850 1188 850 934 
Q 850 659 998 509 
Q 1147 359 1422 359 
z
" transform="scale(0.015625)"/>
       <path id="LiberationSans-64" d="M 2566 544 
Q 2409 219 2151 78 
Q 1894 -63 1513 -63 
Q 872 -63 570 368 
Q 269 800 269 1675 
Q 269 3444 1513 3444 
Q 1897 3444 2153 3303 
Q 2409 3163 2566 2856 
L 2572 2856 
L 2566 3234 
L 2566 4638 
L 3128 4638 
L 3128 697 
Q 3128 169 3147 0 
L 2609 0 
Q 2600 50 2589 231 
Q 2578 413 2578 544 
L 2566 544 
z
M 859 1694 
Q 859 984 1046 678 
Q 1234 372 1656 372 
Q 2134 372 2350 703 
Q 2566 1034 2566 1731 
Q 2566 2403 2350 2715 
Q 2134 3028 1663 3028 
Q 1238 3028 1048 2714 
Q 859 2400 859 1694 
z
" transform="scale(0.015625)"/>
      </defs>
      <use xlink:href="#LiberationSans-53"/>
      <use xlink:href="#LiberationSans-79" x="66.699219"/>
      <use xlink:href="#LiberationSans-73" x="116.699219"/>
      <use xlink:href="#LiberationSans-74" x="166.699219"/>
      <use xlink:href="#LiberationSans-65" x="194.482422"/>
      <use xlink:href="#LiberationSans-6d" x="250.097656"/>
      <use xlink:href="#LiberationSans-20" x="333.398438"/>
      <use xlink:href="#LiberationSans-4c" x="361.181641"/>
      <use xlink:href="#LiberationSans-6f" x="416.796875"/>
      <use xlink:href="#LiberationSans-61" x="472.412109"/>
      <use xlink:href="#LiberationSans-64" x="528.027344"/>
     </g>
    </g>
   </g>
   <g id="matplotlib.axis_2">
    <g id="ytick_1">
     <g id="line2d_13">
      <path d="M 25.46 372.306694 
L 853.2 372.306694 
" clip-path="url(#p66162778f3)" style="fill: none; stroke: #ffffff; stroke-width: 0.8; stroke-linecap: round"/>
     </g>
     <g id="line2d_14"/>
     <g id="text_8">
      <!-- 0 -->
      <g style="fill: #262626" transform="translate(16.399062 375.930131)scale(0.1 -0.1)">
       <use xlink:href="#LiberationSans-30"/>
      </g>
     </g>
    </g>
    <g id="ytick_2">
     <g id="line2d_15">
      <path d="M 25.46 304.656721 
L 853.2 304.656721 
" clip-path="url(#p66162778f3)" style="fill: none; stroke: #ffffff; stroke-width: 0.8; stroke-linecap: round"/>
     </g>
     <g id="line2d_16"/>
     <g id="text_9">
      <!-- 5 -->
      <g style="fill: #262626" transform="translate(16.399062 308.280158)scale(0.1 -0.1)">
       <use xlink:href="#LiberationSans-35"/>
      </g>
     </g>
    </g>
    <g id="ytick_3">
     <g id="line2d_17">
      <path d="M 25.46 237.006748 
L 853.2 237.006748 
" clip-path="url(#p66162778f3)" style="fill: none; stroke: #ffffff; stroke-width: 0.8; stroke-linecap: round"/>
     </g>
     <g id="line2d_18"/>
     <g id="text_10">
      <!-- 10 -->
      <g style="fill: #262626" transform="translate(10.838125 240.630185)scale(0.1 -0.1)">
       <defs>
        <path id="LiberationSans-31" d="M 488 0 
L 488 478 
L 1609 478 
L 1609 3866 
L 616 3156 
L 616 3688 
L 1656 4403 
L 2175 4403 
L 2175 478 
L 3247 478 
L 3247 0 
L 488 0 
z
" transform="scale(0.015625)"/>
       </defs>
       <use xlink:href="#LiberationSans-31"/>
       <use xlink:href="#LiberationSans-30" x="55.615234"/>
      </g>
     </g>
    </g>
    <g id="ytick_4">
     <g id="line2d_19">
      <path d="M 25.46 169.356775 
L 853.2 169.356775 
" clip-path="url(#p66162778f3)" style="fill: none; stroke: #ffffff; stroke-width: 0.8; stroke-linecap: round"/>
     </g>
     <g id="line2d_20"/>
     <g id="text_11">
      <!-- 15 -->
      <g style="fill: #262626" transform="translate(10.838125 172.980212)scale(0.1 -0.1)">
       <use xlink:href="#LiberationSans-31"/>
       <use xlink:href="#LiberationSans-35" x="55.615234"/>
      </g>
     </g>
    </g>
    <g id="ytick_5">
     <g id="line2d_21">
      <path d="M 25.46 101.706802 
L 853.2 101.706802 
" clip-path="url(#p66162778f3)" style="fill: none; stroke: #ffffff; stroke-width: 0.8; stroke-linecap: round"/>
     </g>
     <g id="line2d_22"/>
     <g id="text_12">
      <!-- 20 -->
      <g style="fill: #262626" transform="translate(10.838125 105.330239)scale(0.1 -0.1)">
       <defs>
        <path id="LiberationSans-32" d="M 322 0 
L 322 397 
Q 481 763 711 1042 
Q 941 1322 1194 1548 
Q 1447 1775 1695 1969 
Q 1944 2163 2144 2356 
Q 2344 2550 2467 2762 
Q 2591 2975 2591 3244 
Q 2591 3606 2378 3806 
Q 2166 4006 1788 4006 
Q 1428 4006 1195 3811 
Q 963 3616 922 3263 
L 347 3316 
Q 409 3844 795 4156 
Q 1181 4469 1788 4469 
Q 2453 4469 2811 4155 
Q 3169 3841 3169 3263 
Q 3169 3006 3051 2753 
Q 2934 2500 2703 2247 
Q 2472 1994 1819 1463 
Q 1459 1169 1246 933 
Q 1034 697 941 478 
L 3238 478 
L 3238 0 
L 322 0 
z
" transform="scale(0.015625)"/>
       </defs>
       <use xlink:href="#LiberationSans-32"/>
       <use xlink:href="#LiberationSans-30" x="55.615234"/>
      </g>
     </g>
    </g>
    <g id="ytick_6">
     <g id="line2d_23">
      <path d="M 25.46 34.056829 
L 853.2 34.056829 
" clip-path="url(#p66162778f3)" style="fill: none; stroke: #ffffff; stroke-width: 0.8; stroke-linecap: round"/>
     </g>
     <g id="line2d_24"/>
     <g id="text_13">
      <!-- 25 -->
      <g style="fill: #262626" transform="translate(10.838125 37.680266)scale(0.1 -0.1)">
       <use xlink:href="#LiberationSans-32"/>
       <use xlink:href="#LiberationSans-35" x="55.615234"/>
      </g>
     </g>
    </g>
   </g>
   <g id="PolyCollection_1">
    <defs>
     <path id="m697790b282" d="M 63.084545 -63.483345 
L 63.084545 -63.131735 
L 146.694646 -64.770379 
L 230.304747 -66.957005 
L 313.914848 -70.063861 
L 397.524949 -74.340486 
L 481.135051 -80.788671 
L 564.745152 -90.526407 
L 648.355253 -106.176318 
L 731.965354 -137.697347 
L 815.575455 -214.83485 
L 815.575455 -387.308182 
L 815.575455 -387.308182 
L 731.965354 -172.487111 
L 648.355253 -120.697925 
L 564.745152 -97.193241 
L 481.135051 -84.511606 
L 397.524949 -76.612805 
L 313.914848 -71.50397 
L 230.304747 -67.878998 
L 146.694646 -65.303305 
L 63.084545 -63.483345 
z
" style="stroke: #dc143c; stroke-opacity: 0.1"/>
    </defs>
    <g clip-path="url(#p66162778f3)">
     <use xlink:href="#m697790b282" x="0" y="432" style="fill: #dc143c; fill-opacity: 0.1; stroke: #dc143c; stroke-opacity: 0.1"/>
    </g>
   </g>
   <g id="PolyCollection_2">
    <defs>
     <path id="m4e493c5709" d="M 63.084545 -60.798921 
L 63.084545 -60.647554 
L 146.694646 -61.244487 
L 230.304747 -62.141681 
L 313.914848 -63.458215 
L 397.524949 -65.374368 
L 481.135051 -68.174144 
L 564.745152 -72.823422 
L 648.355253 -80.772476 
L 731.965354 -94.92183 
L 815.575455 -127.350827 
L 815.575455 -233.432463 
L 815.575455 -233.432463 
L 731.965354 -114.622443 
L 648.355253 -87.386852 
L 564.745152 -76.106887 
L 481.135051 -70.154463 
L 397.524949 -66.43447 
L 313.914848 -64.082126 
L 230.304747 -62.541152 
L 146.694646 -61.517093 
L 63.084545 -60.798921 
z
" style="stroke: #00bfff; stroke-opacity: 0.1"/>
    </defs>
    <g clip-path="url(#p66162778f3)">
     <use xlink:href="#m4e493c5709" x="0" y="432" style="fill: #00bfff; fill-opacity: 0.1; stroke: #00bfff; stroke-opacity: 0.1"/>
    </g>
   </g>
   <g id="PolyCollection_3">
    <defs>
     <path id="mf97957477a" d="M 63.084545 -59.924012 
L 63.084545 -59.871818 
L 146.694646 -60.050206 
L 230.304747 -60.335788 
L 313.914848 -60.81344 
L 397.524949 -61.590061 
L 481.135051 -62.824832 
L 564.745152 -64.85414 
L 648.355253 -68.507018 
L 731.965354 -75.936511 
L 815.575455 -93.477094 
L 815.575455 -138.028537 
L 815.575455 -138.028537 
L 731.965354 -85.469093 
L 648.355253 -71.828764 
L 564.745152 -66.481202 
L 481.135051 -63.668292 
L 397.524949 -62.045025 
L 313.914848 -61.078243 
L 230.304747 -60.501541 
L 146.694646 -60.135545 
L 63.084545 -59.924012 
z
" style="stroke: #3cb371; stroke-opacity: 0.1"/>
    </defs>
    <g clip-path="url(#p66162778f3)">
     <use xlink:href="#mf97957477a" x="0" y="432" style="fill: #3cb371; fill-opacity: 0.1; stroke: #3cb371; stroke-opacity: 0.1"/>
    </g>
   </g>
   <g id="PolyCollection_4">
    <defs>
     <path id="m01c0ee2545" d="M 63.084545 -62.562731 
L 63.084545 -62.447006 
L 146.694646 -63.560918 
L 230.304747 -64.955518 
L 313.914848 -66.745375 
L 397.524949 -69.08467 
L 481.135051 -72.12434 
L 564.745152 -76.276458 
L 648.355253 -82.447101 
L 731.965354 -93.289103 
L 815.575455 -117.622375 
L 815.575455 -136.628 
L 815.575455 -136.628 
L 731.965354 -97.260212 
L 648.355253 -84.437541 
L 564.745152 -77.430467 
L 481.135051 -72.799612 
L 397.524949 -69.542368 
L 313.914848 -67.083392 
L 230.304747 -65.185192 
L 146.694646 -63.707191 
L 63.084545 -62.562731 
z
" style="stroke: #800080; stroke-opacity: 0.35"/>
    </defs>
    <g clip-path="url(#p66162778f3)">
     <use xlink:href="#m01c0ee2545" x="0" y="432" style="fill: #800080; fill-opacity: 0.35; stroke: #800080; stroke-opacity: 0.35"/>
    </g>
   </g>
   <g id="line2d_25">
    <path d="M 63.084545 368.69246 
L 146.694646 366.963158 
L 230.304747 364.581999 
L 313.914848 361.216085 
L 397.524949 356.523355 
L 481.135051 349.349861 
L 564.745152 338.140176 
L 648.355253 318.562878 
L 731.965354 276.907771 
L 815.575455 130.928484 
" clip-path="url(#p66162778f3)" style="fill: none; stroke: #dc143c; stroke-opacity: 0.5; stroke-width: 1.5; stroke-linecap: round"/>
   </g>
   <g id="line2d_26">
    <defs>
     <path id="mb140f9d515" d="M 0 1.5 
C 0.397805 1.5 0.77937 1.341951 1.06066 1.06066 
C 1.341951 0.77937 1.5 0.397805 1.5 0 
C 1.5 -0.397805 1.341951 -0.77937 1.06066 -1.06066 
C 0.77937 -1.341951 0.397805 -1.5 0 -1.5 
C -0.397805 -1.5 -0.77937 -1.341951 -1.06066 -1.06066 
C -1.341951 -0.77937 -1.5 -0.397805 -1.5 0 
C -1.5 0.397805 -1.341951 0.77937 -1.06066 1.06066 
C -0.77937 1.341951 -0.397805 1.5 0 1.5 
z
" style="stroke: #dc143c; stroke-opacity: 0.5"/>
    </defs>
    <g clip-path="url(#p66162778f3)">
     <use xlink:href="#mb140f9d515" x="63.084545" y="368.69246" style="fill: #dc143c; fill-opacity: 0.5; stroke: #dc143c; stroke-opacity: 0.5"/>
     <use xlink:href="#mb140f9d515" x="146.694646" y="366.963158" style="fill: #dc143c; fill-opacity: 0.5; stroke: #dc143c; stroke-opacity: 0.5"/>
     <use xlink:href="#mb140f9d515" x="230.304747" y="364.581999" style="fill: #dc143c; fill-opacity: 0.5; stroke: #dc143c; stroke-opacity: 0.5"/>
     <use xlink:href="#mb140f9d515" x="313.914848" y="361.216085" style="fill: #dc143c; fill-opacity: 0.5; stroke: #dc143c; stroke-opacity: 0.5"/>
     <use xlink:href="#mb140f9d515" x="397.524949" y="356.523355" style="fill: #dc143c; fill-opacity: 0.5; stroke: #dc143c; stroke-opacity: 0.5"/>
     <use xlink:href="#mb140f9d515" x="481.135051" y="349.349861" style="fill: #dc143c; fill-opacity: 0.5; stroke: #dc143c; stroke-opacity: 0.5"/>
     <use xlink:href="#mb140f9d515" x="564.745152" y="338.140176" style="fill: #dc143c; fill-opacity: 0.5; stroke: #dc143c; stroke-opacity: 0.5"/>
     <use xlink:href="#mb140f9d515" x="648.355253" y="318.562878" style="fill: #dc143c; fill-opacity: 0.5; stroke: #dc143c; stroke-opacity: 0.5"/>
     <use xlink:href="#mb140f9d515" x="731.965354" y="276.907771" style="fill: #dc143c; fill-opacity: 0.5; stroke: #dc143c; stroke-opacity: 0.5"/>
     <use xlink:href="#mb140f9d515" x="815.575455" y="130.928484" style="fill: #dc143c; fill-opacity: 0.5; stroke: #dc143c; stroke-opacity: 0.5"/>
    </g>
   </g>
   <g id="line2d_27">
    <path d="M 63.084545 371.276762 
L 146.694646 370.61921 
L 230.304747 369.658584 
L 313.914848 368.22983 
L 397.524949 366.095581 
L 481.135051 362.835696 
L 564.745152 357.534845 
L 648.355253 347.920336 
L 731.965354 327.227864 
L 815.575455 251.608355 
" clip-path="url(#p66162778f3)" style="fill: none; stroke: #00bfff; stroke-opacity: 0.5; stroke-width: 1.5; stroke-linecap: round"/>
   </g>
   <g id="line2d_28">
    <defs>
     <path id="m2f079c3b74" d="M 0 1.5 
C 0.397805 1.5 0.77937 1.341951 1.06066 1.06066 
C 1.341951 0.77937 1.5 0.397805 1.5 0 
C 1.5 -0.397805 1.341951 -0.77937 1.06066 -1.06066 
C 0.77937 -1.341951 0.397805 -1.5 0 -1.5 
C -0.397805 -1.5 -0.77937 -1.341951 -1.06066 -1.06066 
C -1.341951 -0.77937 -1.5 -0.397805 -1.5 0 
C -1.5 0.397805 -1.341951 0.77937 -1.06066 1.06066 
C -0.77937 1.341951 -0.397805 1.5 0 1.5 
z
" style="stroke: #00bfff; stroke-opacity: 0.5"/>
    </defs>
    <g clip-path="url(#p66162778f3)">
     <use xlink:href="#m2f079c3b74" x="63.084545" y="371.276762" style="fill: #00bfff; fill-opacity: 0.5; stroke: #00bfff; stroke-opacity: 0.5"/>
     <use xlink:href="#m2f079c3b74" x="146.694646" y="370.61921" style="fill: #00bfff; fill-opacity: 0.5; stroke: #00bfff; stroke-opacity: 0.5"/>
     <use xlink:href="#m2f079c3b74" x="230.304747" y="369.658584" style="fill: #00bfff; fill-opacity: 0.5; stroke: #00bfff; stroke-opacity: 0.5"/>
     <use xlink:href="#m2f079c3b74" x="313.914848" y="368.22983" style="fill: #00bfff; fill-opacity: 0.5; stroke: #00bfff; stroke-opacity: 0.5"/>
     <use xlink:href="#m2f079c3b74" x="397.524949" y="366.095581" style="fill: #00bfff; fill-opacity: 0.5; stroke: #00bfff; stroke-opacity: 0.5"/>
     <use xlink:href="#m2f079c3b74" x="481.135051" y="362.835696" style="fill: #00bfff; fill-opacity: 0.5; stroke: #00bfff; stroke-opacity: 0.5"/>
     <use xlink:href="#m2f079c3b74" x="564.745152" y="357.534845" style="fill: #00bfff; fill-opacity: 0.5; stroke: #00bfff; stroke-opacity: 0.5"/>
     <use xlink:href="#m2f079c3b74" x="648.355253" y="347.920336" style="fill: #00bfff; fill-opacity: 0.5; stroke: #00bfff; stroke-opacity: 0.5"/>
     <use xlink:href="#m2f079c3b74" x="731.965354" y="327.227864" style="fill: #00bfff; fill-opacity: 0.5; stroke: #00bfff; stroke-opacity: 0.5"/>
     <use xlink:href="#m2f079c3b74" x="815.575455" y="251.608355" style="fill: #00bfff; fill-opacity: 0.5; stroke: #00bfff; stroke-opacity: 0.5"/>
    </g>
   </g>
   <g id="line2d_29">
    <path d="M 63.084545 372.102085 
L 146.694646 371.907125 
L 230.304747 371.581335 
L 313.914848 371.054158 
L 397.524949 370.182457 
L 481.135051 368.753438 
L 564.745152 366.332329 
L 648.355253 361.832109 
L 731.965354 351.297198 
L 815.575455 316.247184 
" clip-path="url(#p66162778f3)" style="fill: none; stroke: #3cb371; stroke-opacity: 0.5; stroke-width: 1.5; stroke-linecap: round"/>
   </g>
   <g id="line2d_30">
    <defs>
     <path id="ma37695eddc" d="M 0 1.5 
C 0.397805 1.5 0.77937 1.341951 1.06066 1.06066 
C 1.341951 0.77937 1.5 0.397805 1.5 0 
C 1.5 -0.397805 1.341951 -0.77937 1.06066 -1.06066 
C 0.77937 -1.341951 0.397805 -1.5 0 -1.5 
C -0.397805 -1.5 -0.77937 -1.341951 -1.06066 -1.06066 
C -1.341951 -0.77937 -1.5 -0.397805 -1.5 0 
C -1.5 0.397805 -1.341951 0.77937 -1.06066 1.06066 
C -0.77937 1.341951 -0.397805 1.5 0 1.5 
z
" style="stroke: #3cb371; stroke-opacity: 0.5"/>
    </defs>
    <g clip-path="url(#p66162778f3)">
     <use xlink:href="#ma37695eddc" x="63.084545" y="372.102085" style="fill: #3cb371; fill-opacity: 0.5; stroke: #3cb371; stroke-opacity: 0.5"/>
     <use xlink:href="#ma37695eddc" x="146.694646" y="371.907125" style="fill: #3cb371; fill-opacity: 0.5; stroke: #3cb371; stroke-opacity: 0.5"/>
     <use xlink:href="#ma37695eddc" x="230.304747" y="371.581335" style="fill: #3cb371; fill-opacity: 0.5; stroke: #3cb371; stroke-opacity: 0.5"/>
     <use xlink:href="#ma37695eddc" x="313.914848" y="371.054158" style="fill: #3cb371; fill-opacity: 0.5; stroke: #3cb371; stroke-opacity: 0.5"/>
     <use xlink:href="#ma37695eddc" x="397.524949" y="370.182457" style="fill: #3cb371; fill-opacity: 0.5; stroke: #3cb371; stroke-opacity: 0.5"/>
     <use xlink:href="#ma37695eddc" x="481.135051" y="368.753438" style="fill: #3cb371; fill-opacity: 0.5; stroke: #3cb371; stroke-opacity: 0.5"/>
     <use xlink:href="#ma37695eddc" x="564.745152" y="366.332329" style="fill: #3cb371; fill-opacity: 0.5; stroke: #3cb371; stroke-opacity: 0.5"/>
     <use xlink:href="#ma37695eddc" x="648.355253" y="361.832109" style="fill: #3cb371; fill-opacity: 0.5; stroke: #3cb371; stroke-opacity: 0.5"/>
     <use xlink:href="#ma37695eddc" x="731.965354" y="351.297198" style="fill: #3cb371; fill-opacity: 0.5; stroke: #3cb371; stroke-opacity: 0.5"/>
     <use xlink:href="#ma37695eddc" x="815.575455" y="316.247184" style="fill: #3cb371; fill-opacity: 0.5; stroke: #3cb371; stroke-opacity: 0.5"/>
    </g>
   </g>
   <g id="line2d_31">
    <path d="M 63.084545 369.495131 
L 146.694646 368.365946 
L 230.304747 366.929645 
L 313.914848 365.085617 
L 397.524949 362.686481 
L 481.135051 359.538024 
L 564.745152 355.146537 
L 648.355253 348.557679 
L 731.965354 336.725342 
L 815.575455 304.874812 
" clip-path="url(#p66162778f3)" style="fill: none; stroke: #800080; stroke-width: 1.5; stroke-linecap: round"/>
   </g>
   <g id="line2d_32">
    <defs>
     <path id="m2ce0c51321" d="M -3 3 
L 3 -3 
M -3 -3 
L 3 3 
" style="stroke: #800080"/>
    </defs>
    <g clip-path="url(#p66162778f3)">
     <use xlink:href="#m2ce0c51321" x="63.084545" y="369.495131" style="fill: #800080; stroke: #800080"/>
     <use xlink:href="#m2ce0c51321" x="146.694646" y="368.365946" style="fill: #800080; stroke: #800080"/>
     <use xlink:href="#m2ce0c51321" x="230.304747" y="366.929645" style="fill: #800080; stroke: #800080"/>
     <use xlink:href="#m2ce0c51321" x="313.914848" y="365.085617" style="fill: #800080; stroke: #800080"/>
     <use xlink:href="#m2ce0c51321" x="397.524949" y="362.686481" style="fill: #800080; stroke: #800080"/>
     <use xlink:href="#m2ce0c51321" x="481.135051" y="359.538024" style="fill: #800080; stroke: #800080"/>
     <use xlink:href="#m2ce0c51321" x="564.745152" y="355.146537" style="fill: #800080; stroke: #800080"/>
     <use xlink:href="#m2ce0c51321" x="648.355253" y="348.557679" style="fill: #800080; stroke: #800080"/>
     <use xlink:href="#m2ce0c51321" x="731.965354" y="336.725342" style="fill: #800080; stroke: #800080"/>
     <use xlink:href="#m2ce0c51321" x="815.575455" y="304.874812" style="fill: #800080; stroke: #800080"/>
    </g>
   </g>
   <g id="patch_3">
    <path d="M 25.46 388.5 
L 25.46 28.32 
" style="fill: none"/>
   </g>
   <g id="patch_4">
    <path d="M 853.2 388.5 
L 853.2 28.32 
" style="fill: none"/>
   </g>
   <g id="patch_5">
    <path d="M 25.46 388.5 
L 853.2 388.5 
" style="fill: none"/>
   </g>
   <g id="patch_6">
    <path d="M 25.46 28.32 
L 853.2 28.32 
" style="fill: none"/>
   </g>
   <g id="text_14">
    <!-- FIFO vs SJF | 250 Simulations -->
    <g style="fill: #262626" transform="translate(331.0025 22.32)scale(0.16 -0.16)">
     <defs>
      <path id="LiberationSans-46" d="M 1122 3916 
L 1122 2278 
L 3578 2278 
L 3578 1784 
L 1122 1784 
L 1122 0 
L 525 0 
L 525 4403 
L 3653 4403 
L 3653 3916 
L 1122 3916 
z
" transform="scale(0.015625)"/>
      <path id="LiberationSans-49" d="M 591 0 
L 591 4403 
L 1188 4403 
L 1188 0 
L 591 0 
z
" transform="scale(0.015625)"/>
      <path id="LiberationSans-4f" d="M 4672 2222 
Q 4672 1531 4408 1012 
Q 4144 494 3650 215 
Q 3156 -63 2484 -63 
Q 1806 -63 1314 212 
Q 822 488 562 1008 
Q 303 1528 303 2222 
Q 303 3278 881 3873 
Q 1459 4469 2491 4469 
Q 3163 4469 3656 4201 
Q 4150 3934 4411 3425 
Q 4672 2916 4672 2222 
z
M 4063 2222 
Q 4063 3044 3652 3512 
Q 3241 3981 2491 3981 
Q 1734 3981 1321 3518 
Q 909 3056 909 2222 
Q 909 1394 1326 908 
Q 1744 422 2484 422 
Q 3247 422 3655 892 
Q 4063 1363 4063 2222 
z
" transform="scale(0.015625)"/>
      <path id="LiberationSans-76" d="M 1916 0 
L 1250 0 
L 22 3381 
L 622 3381 
L 1366 1181 
Q 1406 1056 1581 441 
L 1691 806 
L 1813 1175 
L 2581 3381 
L 3178 3381 
L 1916 0 
z
" transform="scale(0.015625)"/>
      <path id="LiberationSans-4a" d="M 1428 -63 
Q 309 -63 100 1094 
L 684 1191 
Q 741 828 937 625 
Q 1134 422 1431 422 
Q 1756 422 1943 645 
Q 2131 869 2131 1300 
L 2131 3916 
L 1284 3916 
L 1284 4403 
L 2725 4403 
L 2725 1313 
Q 2725 672 2378 304 
Q 2031 -63 1428 -63 
z
" transform="scale(0.015625)"/>
      <path id="LiberationSans-7c" d="M 572 -1356 
L 572 4638 
L 1091 4638 
L 1091 -1356 
L 572 -1356 
z
" transform="scale(0.015625)"/>
      <path id="LiberationSans-69" d="M 428 4100 
L 428 4638 
L 991 4638 
L 991 4100 
L 428 4100 
z
M 428 0 
L 428 3381 
L 991 3381 
L 991 0 
L 428 0 
z
" transform="scale(0.015625)"/>
      <path id="LiberationSans-75" d="M 981 3381 
L 981 1238 
Q 981 903 1047 718 
Q 1113 534 1256 453 
Q 1400 372 1678 372 
Q 2084 372 2318 650 
Q 2553 928 2553 1422 
L 2553 3381 
L 3116 3381 
L 3116 722 
Q 3116 131 3134 0 
L 2603 0 
Q 2600 16 2597 84 
Q 2594 153 2589 242 
Q 2584 331 2578 578 
L 2569 578 
Q 2375 228 2120 82 
Q 1866 -63 1488 -63 
Q 931 -63 673 214 
Q 416 491 416 1128 
L 416 3381 
L 981 3381 
z
" transform="scale(0.015625)"/>
      <path id="LiberationSans-6c" d="M 431 0 
L 431 4638 
L 994 4638 
L 994 0 
L 431 0 
z
" transform="scale(0.015625)"/>
      <path id="LiberationSans-6e" d="M 2578 0 
L 2578 2144 
Q 2578 2478 2512 2662 
Q 2447 2847 2303 2928 
Q 2159 3009 1881 3009 
Q 1475 3009 1240 2731 
Q 1006 2453 1006 1959 
L 1006 0 
L 444 0 
L 444 2659 
Q 444 3250 425 3381 
L 956 3381 
Q 959 3366 962 3297 
Q 966 3228 970 3139 
Q 975 3050 981 2803 
L 991 2803 
Q 1184 3153 1439 3298 
Q 1694 3444 2072 3444 
Q 2628 3444 2886 3167 
Q 3144 2891 3144 2253 
L 3144 0 
L 2578 0 
z
" transform="scale(0.015625)"/>
     </defs>
     <use xlink:href="#LiberationSans-46"/>
     <use xlink:href="#LiberationSans-49" x="61.083984"/>
     <use xlink:href="#LiberationSans-46" x="88.867188"/>
     <use xlink:href="#LiberationSans-4f" x="149.951172"/>
     <use xlink:href="#LiberationSans-20" x="227.734375"/>
     <use xlink:href="#LiberationSans-76" x="255.517578"/>
     <use xlink:href="#LiberationSans-73" x="305.517578"/>
     <use xlink:href="#LiberationSans-20" x="355.517578"/>
     <use xlink:href="#LiberationSans-53" x="383.300781"/>
     <use xlink:href="#LiberationSans-4a" x="450"/>
     <use xlink:href="#LiberationSans-46" x="500"/>
     <use xlink:href="#LiberationSans-20" x="561.083984"/>
     <use xlink:href="#LiberationSans-7c" x="588.867188"/>
     <use xlink:href="#LiberationSans-20" x="614.84375"/>
     <use xlink:href="#LiberationSans-32" x="642.626953"/>
     <use xlink:href="#LiberationSans-35" x="698.242188"/>
     <use xlink:href="#LiberationSans-30" x="753.857422"/>
     <use xlink:href="#LiberationSans-20" x="809.472656"/>
     <use xlink:href="#LiberationSans-53" x="837.255859"/>
     <use xlink:href="#LiberationSans-69" x="903.955078"/>
     <use xlink:href="#LiberationSans-6d" x="926.171875"/>
     <use xlink:href="#LiberationSans-75" x="1009.472656"/>
     <use xlink:href="#LiberationSans-6c" x="1065.087891"/>
     <use xlink:href="#LiberationSans-61" x="1087.304688"/>
     <use xlink:href="#LiberationSans-74" x="1142.919922"/>
     <use xlink:href="#LiberationSans-69" x="1170.703125"/>
     <use xlink:href="#LiberationSans-6f" x="1192.919922"/>
     <use xlink:href="#LiberationSans-6e" x="1248.535156"/>
     <use xlink:href="#LiberationSans-73" x="1304.150391"/>
    </g>
   </g>
   <g id="legend_1">
    <g id="line2d_33">
     <path d="M 38.06 46.165625 
L 52.06 46.165625 
L 66.06 46.165625 
" style="fill: none; stroke: #dc143c; stroke-opacity: 0.5; stroke-width: 1.5; stroke-linecap: round"/>
    </g>
    <g id="text_15">
     <!-- (M/M/1) FIFO -->
     <g style="fill: #262626" transform="translate(77.26 51.065625)scale(0.14 -0.14)">
      <defs>
       <path id="LiberationSans-28" d="M 397 1663 
Q 397 2566 680 3284 
Q 963 4003 1550 4638 
L 2094 4638 
Q 1509 3988 1236 3256 
Q 963 2525 963 1656 
Q 963 791 1233 62 
Q 1503 -666 2094 -1325 
L 1550 -1325 
Q 959 -688 678 32 
Q 397 753 397 1650 
L 397 1663 
z
" transform="scale(0.015625)"/>
       <path id="LiberationSans-4d" d="M 4269 0 
L 4269 2938 
Q 4269 3425 4297 3875 
Q 4144 3316 4022 3000 
L 2884 0 
L 2466 0 
L 1313 3000 
L 1138 3531 
L 1034 3875 
L 1044 3528 
L 1056 2938 
L 1056 0 
L 525 0 
L 525 4403 
L 1309 4403 
L 2481 1350 
Q 2544 1166 2601 955 
Q 2659 744 2678 650 
Q 2703 775 2783 1029 
Q 2863 1284 2891 1350 
L 4041 4403 
L 4806 4403 
L 4806 0 
L 4269 0 
z
" transform="scale(0.015625)"/>
       <path id="LiberationSans-2f" d="M 0 -63 
L 1284 4638 
L 1778 4638 
L 506 -63 
L 0 -63 
z
" transform="scale(0.015625)"/>
       <path id="LiberationSans-29" d="M 1734 1650 
Q 1734 747 1451 28 
Q 1169 -691 581 -1325 
L 38 -1325 
Q 625 -669 897 57 
Q 1169 784 1169 1656 
Q 1169 2528 895 3256 
Q 622 3984 38 4638 
L 581 4638 
Q 1172 4000 1453 3279 
Q 1734 2559 1734 1663 
L 1734 1650 
z
" transform="scale(0.015625)"/>
      </defs>
      <use xlink:href="#LiberationSans-28"/>
      <use xlink:href="#LiberationSans-4d" x="33.300781"/>
      <use xlink:href="#LiberationSans-2f" x="116.601562"/>
      <use xlink:href="#LiberationSans-4d" x="144.384766"/>
      <use xlink:href="#LiberationSans-2f" x="227.685547"/>
      <use xlink:href="#LiberationSans-31" x="255.46875"/>
      <use xlink:href="#LiberationSans-29" x="311.083984"/>
      <use xlink:href="#LiberationSans-20" x="344.384766"/>
      <use xlink:href="#LiberationSans-46" x="372.167969"/>
      <use xlink:href="#LiberationSans-49" x="433.251953"/>
      <use xlink:href="#LiberationSans-46" x="461.035156"/>
      <use xlink:href="#LiberationSans-4f" x="522.119141"/>
     </g>
    </g>
    <g id="line2d_34">
     <path d="M 38.06 66.21625 
L 52.06 66.21625 
L 66.06 66.21625 
" style="fill: none; stroke: #00bfff; stroke-opacity: 0.5; stroke-width: 1.5; stroke-linecap: round"/>
    </g>
    <g id="text_16">
     <!-- (M/M/2) FIFO -->
     <g style="fill: #262626" transform="translate(77.26 71.11625)scale(0.14 -0.14)">
      <use xlink:href="#LiberationSans-28"/>
      <use xlink:href="#LiberationSans-4d" x="33.300781"/>
      <use xlink:href="#LiberationSans-2f" x="116.601562"/>
      <use xlink:href="#LiberationSans-4d" x="144.384766"/>
      <use xlink:href="#LiberationSans-2f" x="227.685547"/>
      <use xlink:href="#LiberationSans-32" x="255.46875"/>
      <use xlink:href="#LiberationSans-29" x="311.083984"/>
      <use xlink:href="#LiberationSans-20" x="344.384766"/>
      <use xlink:href="#LiberationSans-46" x="372.167969"/>
      <use xlink:href="#LiberationSans-49" x="433.251953"/>
      <use xlink:href="#LiberationSans-46" x="461.035156"/>
      <use xlink:href="#LiberationSans-4f" x="522.119141"/>
     </g>
    </g>
    <g id="line2d_35">
     <path d="M 38.06 86.266875 
L 52.06 86.266875 
L 66.06 86.266875 
" style="fill: none; stroke: #3cb371; stroke-opacity: 0.5; stroke-width: 1.5; stroke-linecap: round"/>
    </g>
    <g id="text_17">
     <!-- (M/M/4) FIFO -->
     <g style="fill: #262626" transform="translate(77.26 91.166875)scale(0.14 -0.14)">
      <use xlink:href="#LiberationSans-28"/>
      <use xlink:href="#LiberationSans-4d" x="33.300781"/>
      <use xlink:href="#LiberationSans-2f" x="116.601562"/>
      <use xlink:href="#LiberationSans-4d" x="144.384766"/>
      <use xlink:href="#LiberationSans-2f" x="227.685547"/>
      <use xlink:href="#LiberationSans-34" x="255.46875"/>
      <use xlink:href="#LiberationSans-29" x="311.083984"/>
      <use xlink:href="#LiberationSans-20" x="344.384766"/>
      <use xlink:href="#LiberationSans-46" x="372.167969"/>
      <use xlink:href="#LiberationSans-49" x="433.251953"/>
      <use xlink:href="#LiberationSans-46" x="461.035156"/>
      <use xlink:href="#LiberationSans-4f" x="522.119141"/>
     </g>
    </g>
    <g id="line2d_36">
     <path d="M 38.06 106.3175 
L 52.06 106.3175 
L 66.06 106.3175 
" style="fill: none; stroke: #800080; stroke-width: 1.5; stroke-linecap: round"/>
    </g>
    <g id="text_18">
     <!-- (M/M/1) SJF -->
     <g style="fill: #262626" transform="translate(77.26 111.2175)scale(0.14 -0.14)">
      <use xlink:href="#LiberationSans-28"/>
      <use xlink:href="#LiberationSans-4d" x="33.300781"/>
      <use xlink:href="#LiberationSans-2f" x="116.601562"/>
      <use xlink:href="#LiberationSans-4d" x="144.384766"/>
      <use xlink:href="#LiberationSans-2f" x="227.685547"/>
      <use xlink:href="#LiberationSans-31" x="255.46875"/>
      <use xlink:href="#LiberationSans-29" x="311.083984"/>
      <use xlink:href="#LiberationSans-20" x="344.384766"/>
      <use xlink:href="#LiberationSans-53" x="372.167969"/>
      <use xlink:href="#LiberationSans-4a" x="438.867188"/>
      <use xlink:href="#LiberationSans-46" x="488.867188"/>
     </g>
    </g>
   </g>
  </g>
 </g>
 <defs>
  <clipPath id="p66162778f3">
   <rect x="25.46" y="28.32" width="827.74" height="360.18"/>
  </clipPath>
 </defs>
</svg>
